CommonSans-Black.ufo
<glyph name="period" format="2">
	<unicode hex="002E"/>
	<advance width="180"/>
	<outline>
		<contour>
			<point x="130" y="0" type="line"/>
			<point x="50" y="0" type="line"/>
			<point x="50" y="80" type="line"/>
			<point x="130" y="80" type="line"/>
		</contour>
	</outline>
</glyph>
<glyph name="one" format="2">
	<unicode hex="0031"/>
	<advance width="327"/>
	<outline>
		<contour>
			<point x="50" y="567" type="curve"/>
			<point x="50" y="634" type="line"/>
			<point x="156" y="634"/>
			<point x="210" y="666"/>
			<point x="248" y="700" type="curve"/>
			<point x="277" y="700" type="line"/>
			<point x="277" y="0" type="line"/>
			<point x="187" y="0" type="line"/>
			<point x="187" y="530" type="line" smooth="yes"/>
			<point x="187" y="550"/>
			<point x="187" y="569"/>
			<point x="187" y="589" type="curve"/>
			<point x="164" y="582"/>
			<point x="119" y="567"/>
		</contour>
	</outline>
</glyph>
<glyph name="two" format="2">
	<unicode hex="0032"/>
	<advance width="528"/>
	<outline>
		<contour>
			<point x="125" y="482" type="curve"/>
			<point x="36" y="480" type="line"/>
			<point x="36" y="611"/>
			<point x="123" y="710"/>
			<point x="260" y="710" type="curve" smooth="yes"/>
			<point x="442" y="710"/>
			<point x="492" y="630"/>
			<point x="492" y="509" type="curve" smooth="yes"/>
			<point x="492" y="349"/>
			<point x="264" y="195"/>
			<point x="172" y="90" type="curve"/>
			<point x="514" y="90" type="line"/>
			<point x="514" y="0" type="line"/>
			<point x="58" y="0" type="line"/>
			<point x="58" y="90" type="line"/>
			<point x="80" y="118"/>
			<point x="102" y="143"/>
			<point x="125" y="167" type="curve" smooth="yes"/>
			<point x="261" y="310"/>
			<point x="402" y="393"/>
			<point x="402" y="498" type="curve" smooth="yes"/>
			<point x="402" y="575"/>
			<point x="388" y="630"/>
			<point x="260" y="630" type="curve" smooth="yes"/>
			<point x="173" y="630"/>
			<point x="128" y="562"/>
		</contour>
	</outline>
</glyph>
<glyph name="equal" format="2">
	<unicode hex="003D"/>
	<advance width="450"/>
	<outline>
		<contour>
			<point x="400" y="130" type="line"/>
			<point x="50" y="130" type="line"/>
			<point x="50" y="195" type="line"/>
			<point x="400" y="195" type="line"/>
		</contour>
		<contour>
			<point x="400" y="285" type="line"/>
			<point x="50" y="285" type="line"/>
			<point x="50" y="350" type="line"/>
			<point x="400" y="350" type="line"/>
		</contour>
	</outline>
</glyph>
<glyph name="A" format="2">
	<unicode hex="0041"/>
	<advance width="650"/>
	<outline>
		<contour>
			<point x="370" y="295" type="line"/>
			<point x="325" y="441" type="line"/>
			<point x="280" y="295" type="line"/>
		</contour>
		<contour>
			<point x="460" y="0" type="line"/>
			<point x="425" y="115" type="line"/>
			<point x="225" y="115" type="line"/>
			<point x="190" y="0" type="line"/>
			<point x="10" y="0" type="line"/>
			<point x="218" y="680" type="line"/>
			<point x="430" y="680" type="line"/>
			<point x="640" y="0" type="line"/>
		</contour>
	</outline>
	<anchor name="top" x="312" y="740"/>
</glyph>
<glyph name="B" format="2">
	<unicode hex="0042"/>
	<advance width="620"/>
	<outline>
		<contour>
			<point x="275" y="287" type="curve" smooth="yes"/>
			<point x="230" y="287" type="line"/>
			<point x="230" y="160" type="line"/>
			<point x="275" y="160" type="line" smooth="yes"/>
			<point x="321" y="160"/>
			<point x="360" y="182"/>
			<point x="360" y="233" type="curve" smooth="yes"/>
			<point x="360" y="271"/>
			<point x="329" y="287"/>
		</contour>
		<contour>
			<point x="275" y="520" type="curve" smooth="yes"/>
			<point x="230" y="520" type="line"/>
			<point x="230" y="447" type="line"/>
			<point x="275" y="447" type="line" smooth="yes"/>
			<point x="295" y="447"/>
			<point x="310" y="463"/>
			<point name=".hr01" x="310" y="484" type="curve" smooth="yes"/>
			<point x="310" y="501"/>
			<point x="302" y="520"/>
		</contour>
		<contour>
			<point x="275" y="0" type="curve" smooth="yes"/>
			<point x="50" y="0" type="line"/>
			<point x="50" y="680" type="line"/>
			<point x="275" y="680" type="line" smooth="yes"/>
			<point x="415" y="680"/>
			<point x="490" y="613"/>
			<point x="490" y="512" type="curve" smooth="yes"/>
			<point x="490" y="461"/>
			<point x="458" y="401"/>
			<point x="398" y="374" type="curve"/>
			<point x="476" y="360"/>
			<point x="540" y="299"/>
			<point x="540" y="221" type="curve" smooth="yes"/>
			<point name=".hr02" x="540" y="100"/>
			<point x="473" y="0"/>
		</contour>
	</outline>
	<anchor name="top" x="272" y="740"/>
</glyph>
<glyph name="C" format="2">
	<unicode hex="0043"/>
	<advance width="645"/>
	<outline>
		<contour>
			<point x="348" y="530" type="curve" smooth="yes"/>
			<point x="264" y="530"/>
			<point x="210" y="455"/>
			<point x="210" y="340" type="curve" smooth="yes"/>
			<point x="210" y="225"/>
			<point x="264" y="150"/>
			<point x="348" y="150" type="curve" smooth="yes"/>
			<point x="399" y="150"/>
			<point x="445" y="181"/>
			<point x="455" y="224" type="curve"/>
			<point x="615" y="224" type="line"/>
			<point x="594" y="81"/>
			<point x="488" y="-10"/>
			<point x="348" y="-10" type="curve" smooth="yes"/>
			<point x="143" y="-10"/>
			<point x="30" y="114"/>
			<point x="30" y="340" type="curve" smooth="yes"/>
			<point x="30" y="566"/>
			<point x="143" y="690"/>
			<point x="348" y="690" type="curve" smooth="yes"/>
			<point x="494" y="690"/>
			<point x="594" y="594"/>
			<point x="615" y="444" type="curve"/>
			<point x="455" y="444" type="line"/>
			<point x="444" y="502"/>
			<point x="403" y="530"/>
		</contour>
	</outline>
	<anchor name="top" x="342" y="740"/>
</glyph>
<glyph name="D" format="2">
	<unicode hex="0044"/>
	<advance width="640"/>
	<outline>
		<contour>
			<point x="230" y="520" type="line"/>
			<point x="230" y="160" type="line"/>
			<point x="308" y="160" type="line" smooth="yes"/>
			<point x="375" y="160"/>
			<point x="430" y="233"/>
			<point x="430" y="340" type="curve" smooth="yes"/>
			<point x="430" y="483"/>
			<point x="377" y="520"/>
			<point x="308" y="520" type="curve" smooth="yes"/>
		</contour>
		<contour>
			<point x="50" y="680" type="line"/>
			<point x="308" y="680" type="line" smooth="yes"/>
			<point x="498" y="680"/>
			<point x="610" y="564"/>
			<point x="610" y="340" type="curve" smooth="yes"/>
			<point x="610" y="113"/>
			<point x="499" y="0"/>
			<point x="308" y="0" type="curve" smooth="yes"/>
			<point x="50" y="0" type="line"/>
		</contour>
	</outline>
	<anchor name="top" x="302" y="740"/>
</glyph>
<glyph name="F" format="2">
	<unicode hex="0046"/>
	<advance width="510"/>
	<outline>
		<contour>
			<point x="420" y="270" type="line"/>
			<point x="230" y="270" type="line"/>
			<point x="230" y="0" type="line"/>
			<point x="50" y="0" type="line"/>
			<point x="50" y="680" type="line"/>
			<point x="460" y="680" type="line"/>
			<point x="460" y="530" type="line"/>
			<point x="230" y="530" type="line"/>
			<point x="230" y="420" type="line"/>
			<point x="420" y="420" type="line"/>
		</contour>
	</outline>
	<anchor name="top" x="262" y="740"/>
</glyph>
<glyph name="G" format="2">
	<unicode hex="0047"/>
	<advance width="647"/>
	<outline>
		<contour>
			<point x="348" y="530" type="curve" smooth="yes"/>
			<point x="264" y="530"/>
			<point x="210" y="455"/>
			<point x="210" y="340" type="curve" smooth="yes"/>
			<point x="210" y="225"/>
			<point x="264" y="150"/>
			<point x="348" y="150" type="curve" smooth="yes"/>
			<point x="397" y="150"/>
			<point x="437" y="172"/>
			<point x="457" y="212" type="curve"/>
			<point x="457" y="230" type="line"/>
			<point x="347" y="230" type="line"/>
			<point x="347" y="350" type="line"/>
			<point x="607" y="350" type="line"/>
			<point x="607" y="0" type="line"/>
			<point x="457" y="0" type="line"/>
			<point x="457" y="23" type="line"/>
			<point x="432" y="4"/>
			<point x="385" y="-10"/>
			<point x="348" y="-10" type="curve" smooth="yes"/>
			<point x="143" y="-10"/>
			<point x="30" y="114"/>
			<point x="30" y="340" type="curve" smooth="yes"/>
			<point x="30" y="566"/>
			<point x="143" y="690"/>
			<point x="348" y="690" type="curve" smooth="yes"/>
			<point x="494" y="690"/>
			<point x="594" y="594"/>
			<point x="615" y="444" type="curve"/>
			<point x="455" y="444" type="line"/>
			<point x="444" y="502"/>
			<point x="403" y="530"/>
		</contour>
	</outline>
	<anchor name="top" x="342" y="740"/>
</glyph>
<glyph name="H" format="2">
	<unicode hex="0048"/>
	<advance width="660"/>
	<outline>
		<contour>
			<point x="610" y="680" type="line"/>
			<point x="610" y="0" type="line"/>
			<point x="430" y="0" type="line"/>
			<point x="430" y="257" type="line"/>
			<point x="230" y="257" type="line"/>
			<point x="230" y="0" type="line"/>
			<point x="50" y="0" type="line"/>
			<point x="50" y="680" type="line"/>
			<point x="230" y="680" type="line"/>
			<point x="230" y="417" type="line"/>
			<point x="430" y="417" type="line"/>
			<point x="430" y="680" type="line"/>
		</contour>
	</outline>
	<anchor name="top" x="333" y="740"/>
</glyph>
<glyph name="I" format="2">
	<unicode hex="0049"/>
	<advance width="280"/>
	<outline>
		<contour>
			<point x="230" y="0" type="line"/>
			<point x="50" y="0" type="line"/>
			<point x="50" y="680" type="line"/>
			<point x="230" y="680" type="line"/>
		</contour>
	</outline>
	<anchor name="top" x="139" y="740"/>
</glyph>
<glyph name="K" format="2">
	<unicode hex="004B"/>
	<advance width="710"/>
	<outline>
		<contour>
			<point x="230" y="233" type="line"/>
			<point x="230" y="0" type="line"/>
			<point x="50" y="0" type="line"/>
			<point x="50" y="680" type="line"/>
			<point x="230" y="680" type="line"/>
			<point x="230" y="380" type="line"/>
			<point x="290" y="397" type="line"/>
			<point x="460" y="680" type="line"/>
			<point x="660" y="680" type="line"/>
			<point x="460" y="350" type="line"/>
			<point x="700" y="0" type="line"/>
			<point x="480" y="0" type="line"/>
			<point x="308" y="259" type="line"/>
		</contour>
	</outline>
	<anchor name="top" x="311" y="740"/>
</glyph>
<glyph name="L" format="2">
	<unicode hex="004C"/>
	<advance width="510"/>
	<outline>
		<contour>
			<point x="230" y="680" type="line"/>
			<point x="230" y="160" type="line"/>
			<point x="500" y="160" type="line"/>
			<point x="500" y="0" type="line"/>
			<point x="50" y="0" type="line"/>
			<point x="50" y="680" type="line"/>
		</contour>
	</outline>
	<anchor name="top" x="141" y="740"/>
</glyph>
<glyph name="M" format="2">
	<unicode hex="004D"/>
	<advance width="890"/>
	<outline>
		<contour>
			<point x="840" y="680" type="line"/>
			<point x="840" y="0" type="line"/>
			<point x="660" y="0" type="line"/>
			<point x="660" y="277" type="line"/>
			<point x="550" y="0" type="line"/>
			<point x="338" y="0" type="line"/>
			<point x="230" y="274" type="line"/>
			<point x="230" y="0" type="line"/>
			<point x="50" y="0" type="line"/>
			<point x="50" y="680" type="line"/>
			<point x="250" y="680" type="line"/>
			<point x="396" y="335" type="line" smooth="yes"/>
			<point x="411" y="299"/>
			<point x="429" y="247"/>
			<point x="445" y="195" type="curve"/>
			<point x="461" y="247"/>
			<point x="479" y="299"/>
			<point x="494" y="335" type="curve" smooth="yes"/>
			<point x="640" y="680" type="line"/>
		</contour>
	</outline>
	<anchor name="top" x="457" y="740"/>
</glyph>
<glyph name="N" format="2">
	<unicode hex="004E"/>
	<advance width="714"/>
	<outline>
		<contour>
			<point x="230" y="320" type="curve" smooth="yes"/>
			<point x="230" y="0" type="line"/>
			<point x="50" y="0" type="line"/>
			<point x="50" y="680" type="line"/>
			<point x="250" y="680" type="line"/>
			<point x="487" y="292" type="line"/>
			<point x="484" y="318"/>
			<point x="484" y="342"/>
			<point x="484" y="360" type="curve" smooth="yes"/>
			<point x="484" y="680" type="line"/>
			<point x="664" y="680" type="line"/>
			<point x="664" y="0" type="line"/>
			<point x="464" y="0" type="line"/>
			<point x="227" y="388" type="line"/>
			<point x="230" y="362"/>
			<point x="230" y="338"/>
		</contour>
	</outline>
	<anchor name="top" x="353" y="740"/>
</glyph>
<glyph name="O" format="2">
	<unicode hex="004F"/>
	<advance width="696"/>
	<outline>
		<contour>
			<point x="348" y="530" type="curve" smooth="yes"/>
			<point x="264" y="530"/>
			<point x="210" y="455"/>
			<point x="210" y="340" type="curve" smooth="yes"/>
			<point x="210" y="225"/>
			<point x="264" y="150"/>
			<point x="348" y="150" type="curve" smooth="yes"/>
			<point x="432" y="150"/>
			<point x="486" y="225"/>
			<point x="486" y="340" type="curve" smooth="yes"/>
			<point x="486" y="455"/>
			<point x="432" y="530"/>
		</contour>
		<contour>
			<point x="348" y="-10" type="curve" smooth="yes"/>
			<point x="143" y="-10"/>
			<point x="30" y="114"/>
			<point x="30" y="340" type="curve" smooth="yes"/>
			<point x="30" y="566"/>
			<point x="143" y="690"/>
			<point x="348" y="690" type="curve" smooth="yes"/>
			<point x="553" y="690"/>
			<point x="666" y="566"/>
			<point x="666" y="340" type="curve" smooth="yes"/>
			<point x="666" y="114"/>
			<point x="553" y="-10"/>
		</contour>
	</outline>
	<anchor name="top" x="342" y="740"/>
</glyph>
<glyph name="P" format="2">
	<unicode hex="0050"/>
	<advance width="580"/>
	<outline>
		<contour>
			<point x="290" y="520" type="curve" smooth="yes"/>
			<point x="230" y="520" type="line"/>
			<point x="230" y="380" type="line"/>
			<point x="290" y="380" type="line" smooth="yes"/>
			<point x="330" y="380"/>
			<point x="370" y="397"/>
			<point x="370" y="457" type="curve" smooth="yes"/>
			<point x="370" y="501"/>
			<point x="330" y="520"/>
		</contour>
		<contour>
			<point x="290" y="220" type="curve" smooth="yes"/>
			<point x="230" y="220" type="line"/>
			<point x="230" y="0" type="line"/>
			<point x="50" y="0" type="line"/>
			<point x="50" y="680" type="line"/>
			<point x="290" y="680" type="line" smooth="yes"/>
			<point x="430" y="680"/>
			<point x="530" y="617"/>
			<point x="530" y="457" type="curve" smooth="yes"/>
			<point x="530" y="297"/>
			<point x="430" y="220"/>
		</contour>
	</outline>
	<anchor name="top" x="262" y="740"/>
</glyph>
<glyph name="Q" format="2">
	<unicode hex="0051"/>
	<advance width="696"/>
	<outline>
		<component base="O"/>
		<contour>
			<point x="672" y="11" type="line"/>
			<point x="576" y="-69" type="line"/>
			<point x="322" y="202" type="line"/>
			<point x="418" y="282" type="line"/>
		</contour>
	</outline>
	<anchor name="top" x="342" y="740"/>
</glyph>
<glyph name="S" format="2">
	<unicode hex="0053"/>
	<advance width="581"/>
	<outline>
		<contour>
			<point x="30" y="223" type="curve"/>
			<point x="220" y="223" type="line"/>
			<point x="220" y="183"/>
			<point x="243" y="150"/>
			<point x="290" y="150" type="curve" smooth="yes"/>
			<point x="340" y="150"/>
			<point x="361" y="170"/>
			<point x="361" y="194" type="curve" smooth="yes"/>
			<point x="361" y="222"/>
			<point x="347" y="243"/>
			<point x="325" y="255" type="curve" smooth="yes"/>
			<point x="138" y="358" type="line" smooth="yes"/>
			<point x="84" y="388"/>
			<point name=".hr01" x="48" y="430"/>
			<point x="48" y="492" type="curve" smooth="yes"/>
			<point x="48" y="612"/>
			<point x="139" y="690"/>
			<point x="298" y="690" type="curve" smooth="yes"/>
			<point x="442" y="690"/>
			<point x="549" y="590"/>
			<point x="549" y="481" type="curve"/>
			<point x="359" y="481" type="line"/>
			<point x="359" y="506"/>
			<point x="341" y="530"/>
			<point x="289" y="530" type="curve" smooth="yes"/>
			<point x="253" y="530"/>
			<point x="238" y="522"/>
			<point x="238" y="493" type="curve" smooth="yes"/>
			<point x="238" y="479"/>
			<point x="245" y="470"/>
			<point x="273" y="455" type="curve" smooth="yes"/>
			<point x="448" y="360" type="line" smooth="yes"/>
			<point x="515" y="324"/>
			<point x="551" y="274"/>
			<point x="551" y="191" type="curve" smooth="yes"/>
			<point x="551" y="69"/>
			<point x="458" y="-10"/>
			<point x="283" y="-10" type="curve" smooth="yes"/>
			<point x="135" y="-10"/>
			<point name=".hr02" x="30" y="91"/>
		</contour>
	</outline>
	<anchor name="top" x="272" y="740"/>
</glyph>
<glyph name="T" format="2">
	<unicode hex="0054"/>
	<advance width="480"/>
	<outline>
		<contour>
			<point x="330" y="520" type="line"/>
			<point x="330" y="0" type="line"/>
			<point x="150" y="0" type="line"/>
			<point x="150" y="520" type="line"/>
			<point x="10" y="520" type="line"/>
			<point x="10" y="680" type="line"/>
			<point x="470" y="680" type="line"/>
			<point x="470" y="520" type="line"/>
		</contour>
	</outline>
	<anchor name="top" x="232" y="740"/>
</glyph>
<glyph name="U" format="2">
	<unicode hex="0055"/>
	<advance width="640"/>
	<outline>
		<contour>
			<point x="50" y="270" type="curve" smooth="yes"/>
			<point x="50" y="680" type="line"/>
			<point x="230" y="680" type="line"/>
			<point x="230" y="310" type="line" smooth="yes"/>
			<point x="230" y="211"/>
			<point x="250" y="160"/>
			<point x="320" y="160" type="curve" smooth="yes"/>
			<point x="390" y="160"/>
			<point x="410" y="211"/>
			<point x="410" y="310" type="curve" smooth="yes"/>
			<point x="410" y="680" type="line"/>
			<point x="590" y="680" type="line"/>
			<point x="590" y="270" type="line" smooth="yes"/>
			<point x="590" y="86"/>
			<point x="490" y="-10"/>
			<point x="320" y="-10" type="curve" smooth="yes"/>
			<point x="150" y="-10"/>
			<point x="50" y="86"/>
		</contour>
	</outline>
	<anchor name="top" x="323" y="740"/>
</glyph>
<glyph name="V" format="2">
	<unicode hex="0056"/>
	<advance width="650"/>
	<outline>
		<contour>
			<point x="354" y="335" type="curve" smooth="yes"/>
			<point x="460" y="680" type="line"/>
			<point x="640" y="680" type="line"/>
			<point x="430" y="0" type="line"/>
			<point x="218" y="0" type="line"/>
			<point x="10" y="680" type="line"/>
			<point x="190" y="680" type="line"/>
			<point x="296" y="335" type="line" smooth="yes"/>
			<point x="306" y="301"/>
			<point x="316" y="256"/>
			<point x="325" y="209" type="curve"/>
			<point x="334" y="256"/>
			<point x="344" y="301"/>
		</contour>
	</outline>
	<anchor name="top" x="333" y="740"/>
</glyph>
<glyph name="W" format="2">
	<unicode hex="0057"/>
	<advance width="1100"/>
	<outline>
		<contour>
			<point x="804" y="335" type="curve" smooth="yes"/>
			<point x="910" y="680" type="line"/>
			<point x="1090" y="680" type="line"/>
			<point x="880" y="0" type="line"/>
			<point x="668" y="0" type="line"/>
			<point x="550" y="387" type="line"/>
			<point x="430" y="0" type="line"/>
			<point x="218" y="0" type="line"/>
			<point x="10" y="680" type="line"/>
			<point x="190" y="680" type="line"/>
			<point x="296" y="335" type="line" smooth="yes"/>
			<point x="306" y="301"/>
			<point x="316" y="256"/>
			<point x="325" y="209" type="curve"/>
			<point x="334" y="256"/>
			<point x="344" y="301"/>
			<point x="354" y="335" type="curve" smooth="yes"/>
			<point x="460" y="680" type="line"/>
			<point x="640" y="680" type="line"/>
			<point x="746" y="335" type="line" smooth="yes"/>
			<point x="756" y="301"/>
			<point x="766" y="256"/>
			<point x="775" y="209" type="curve"/>
			<point x="784" y="256"/>
			<point x="794" y="301"/>
		</contour>
	</outline>
	<anchor name="top" x="553" y="740"/>
</glyph>
<glyph name="X" format="2">
	<unicode hex="0058"/>
	<advance width="662"/>
	<outline>
		<contour>
			<point x="642" y="680" type="line"/>
			<point x="439" y="332" type="line"/>
			<point x="634" y="0" type="line"/>
			<point x="417" y="0" type="line"/>
			<point x="331" y="148" type="line"/>
			<point x="244" y="0" type="line"/>
			<point x="30" y="0" type="line"/>
			<point x="224" y="331" type="line"/>
			<point x="20" y="680" type="line"/>
			<point x="235" y="680" type="line"/>
			<point x="332" y="514" type="line"/>
			<point x="430" y="680" type="line"/>
		</contour>
	</outline>
	<anchor name="top" x="335" y="740"/>
</glyph>
<glyph name="Y" format="2">
	<unicode hex="0059"/>
	<advance width="594"/>
	<outline>
		<contour>
			<point x="207" y="210" type="line"/>
			<point x="-5" y="680" type="line"/>
			<point x="180" y="680" type="line"/>
			<point x="296" y="418" type="line"/>
			<point x="298" y="418" type="line"/>
			<point x="419" y="680" type="line"/>
			<point x="599" y="680" type="line"/>
			<point x="387" y="210" type="line"/>
			<point x="387" y="0" type="line"/>
			<point x="207" y="0" type="line"/>
		</contour>
	</outline>
	<anchor name="top" x="297" y="740"/>
</glyph>
<glyph name="Z" format="2">
	<unicode hex="005A"/>
	<advance width="615"/>
	<outline>
		<contour>
			<point x="590" y="160" type="line"/>
			<point x="590" y="0" type="line"/>
			<point x="50" y="0" type="line"/>
			<point x="50" y="80" type="line"/>
			<point x="321" y="520" type="line"/>
			<point x="70" y="520" type="line"/>
			<point x="70" y="680" type="line"/>
			<point x="586" y="680" type="line"/>
			<point x="586" y="600" type="line"/>
			<point x="315" y="160" type="line"/>
		</contour>
	</outline>
	<anchor name="top" x="313" y="740"/>
</glyph>
<glyph name="bracketleft" format="2">
	<unicode hex="005B"/>
	<advance width="460"/>
	<outline>
		<contour>
			<point x="70" y="880" type="line"/>
			<point x="390" y="880" type="line"/>
			<point x="390" y="720" type="line"/>
			<point x="250" y="720" type="line"/>
			<point x="250" y="-21" type="line"/>
			<point x="390" y="-21" type="line"/>
			<point x="390" y="-181" type="line"/>
			<point x="70" y="-181" type="line"/>
		</contour>
	</outline>
</glyph>
<glyph name="backslash" format="2">
	<unicode hex="005C"/>
	<advance width="598"/>
	<outline>
		<contour>
			<point x="367" y="0" type="line"/>
			<point x="20" y="700" type="line"/>
			<point x="227" y="700" type="line"/>
			<point x="578" y="0" type="line"/>
		</contour>
	</outline>
</glyph>
<glyph name="bracketright" format="2">
	<unicode hex="005D"/>
	<advance width="460"/>
	<outline>
		<contour>
			<point x="70" y="-181" type="line"/>
			<point x="70" y="-21" type="line"/>
			<point x="210" y="-21" type="line"/>
			<point x="210" y="720" type="line"/>
			<point x="70" y="720" type="line"/>
			<point x="70" y="880" type="line"/>
			<point x="390" y="880" type="line"/>
			<point x="390" y="-181" type="line"/>
		</contour>
	</outline>
</glyph>
<glyph name="asciicircum" format="2">
	<unicode hex="005E"/>
	<advance width="654"/>
	<outline>
		<contour>
			<point x="40" y="520" type="line"/>
			<point x="210" y="800" type="line"/>
			<point x="444" y="800" type="line"/>
			<point x="614" y="520" type="line"/>
			<point x="418" y="520" type="line"/>
			<point x="306" y="687" type="line"/>
			<point x="358" y="687" type="line"/>
			<point x="246" y="520" type="line"/>
		</contour>
	</outline>
</glyph>
<glyph name="grave" format="2">
	<unicode hex="0060"/>
	<advance width="324"/>
	<outline>
		<contour>
			<point x="130" y="520" type="line"/>
			<point x="30" y="720" type="line"/>
			<point x="244" y="720" type="line"/>
			<point x="294" y="520" type="line"/>
		</contour>
	</outline>
</glyph>
<glyph name="a" format="2">
	<unicode hex="0061"/>
	<advance width="570"/>
	<outline>
		<contour>
			<point x="55" y="123" type="curve" smooth="yes"/>
			<point x="55" y="210"/>
			<point x="136" y="268"/>
			<point x="271" y="281" type="curve" smooth="yes"/>
			<point x="352" y="289" type="line"/>
			<point x="352" y="220" type="line"/>
			<point x="305" y="208" type="line" smooth="yes"/>
			<point x="258" y="196"/>
			<point x="245" y="177"/>
			<point x="245" y="145" type="curve" smooth="yes"/>
			<point x="245" y="127"/>
			<point x="258" y="110"/>
			<point x="280" y="110" type="curve" smooth="yes"/>
			<point x="299" y="110"/>
			<point x="324" y="122"/>
			<point x="342" y="142" type="curve" smooth="yes"/>
			<point x="363" y="166" type="line"/>
			<point x="363" y="54" type="line"/>
			<point x="338" y="54" type="line"/>
			<point x="299" y="13"/>
			<point x="257" y="-14"/>
			<point x="192" y="-14" type="curve" smooth="yes"/>
			<point x="111" y="-14"/>
			<point x="55" y="44"/>
		</contour>
		<contour>
			<point x="362" y="0" type="line"/>
			<point x="342" y="54" type="line"/>
			<point x="342" y="310" type="line" smooth="yes"/>
			<point x="342" y="342"/>
			<point x="326" y="365"/>
			<point x="297" y="365" type="curve" smooth="yes"/>
			<point x="277" y="365"/>
			<point x="264" y="348"/>
			<point x="260" y="330" type="curve"/>
			<point name=".hr01" x="76" y="330" type="line"/>
			<point x="83" y="412"/>
			<point x="158" y="474"/>
			<point x="303" y="474" type="curve" smooth="yes"/>
			<point x="458" y="474"/>
			<point x="522" y="396"/>
			<point x="522" y="299" type="curve" smooth="yes"/>
			<point x="522" y="0" type="line"/>
		</contour>
	</outline>
	<anchor name="top" x="304" y="520"/>
</glyph>
<glyph name="b" format="2">
	<unicode hex="0062"/>
	<advance width="616"/>
	<outline>
		<contour>
			<point x="225" y="232" type="curve" smooth="yes"/>
			<point x="225" y="206" type="line" smooth="yes"/>
			<point x="225" y="134"/>
			<point x="252" y="110"/>
			<point x="290" y="110" type="curve" smooth="yes"/>
			<point x="336" y="110"/>
			<point x="356" y="143"/>
			<point x="356" y="231" type="curve" smooth="yes"/>
			<point x="356" y="328"/>
			<point x="331" y="350"/>
			<point x="285" y="350" type="curve" smooth="yes"/>
			<point x="238" y="350"/>
			<point x="225" y="308"/>
		</contour>
		<contour>
			<point x="215" y="74" type="line"/>
			<point x="212" y="393" type="line"/>
			<point x="225" y="410" type="line" smooth="yes"/>
			<point x="255" y="450"/>
			<point x="289" y="474"/>
			<point x="356" y="474" type="curve" smooth="yes"/>
			<point x="467" y="474"/>
			<point x="546" y="402"/>
			<point x="546" y="231" type="curve" smooth="yes"/>
			<point x="546" y="89"/>
			<point x="462" y="-14"/>
			<point x="352" y="-14" type="curve" smooth="yes"/>
			<point x="288" y="-14"/>
			<point x="262" y="11"/>
			<point x="225" y="74" type="curve"/>
		</contour>
		<contour>
			<point x="45" y="0" type="line"/>
			<point x="45" y="700" type="line"/>
			<point x="225" y="700" type="line"/>
			<point x="225" y="74" type="line"/>
			<point x="223" y="74" type="line"/>
			<point x="205" y="0" type="line"/>
		</contour>
	</outline>
</glyph>
<glyph name="h" format="2">
	<unicode hex="0068"/>
	<advance width="588"/>
	<outline>
		<contour>
			<point x="208" y="271" type="line"/>
			<point x="208" y="382" type="line"/>
			<point x="230" y="382" type="line"/>
			<point x="273" y="445"/>
			<point x="322" y="474"/>
			<point x="383" y="474" type="curve" smooth="yes"/>
			<point x="492" y="474"/>
			<point x="538" y="422"/>
			<point x="538" y="299" type="curve" smooth="yes"/>
			<point x="538" y="0" type="line"/>
			<point x="358" y="0" type="line"/>
			<point x="358" y="242" type="line" smooth="yes"/>
			<point x="358" y="309"/>
			<point x="337" y="334"/>
			<point x="301" y="334" type="curve" smooth="yes"/>
			<point x="266" y="334"/>
			<point x="242" y="312"/>
			<point x="230" y="271" type="curve"/>
		</contour>
		<contour>
			<point x="50" y="0" type="line"/>
			<point x="50" y="700" type="line"/>
			<point x="230" y="700" type="line"/>
			<point x="230" y="0" type="line"/>
		</contour>
	</outline>
</glyph>
<glyph name="i" format="2">
	<unicode hex="0069"/>
	<advance width="300"/>
	<outline>
		<contour>
			<point x="240" y="0" type="line"/>
			<point x="60" y="0" type="line"/>
			<point x="60" y="460" type="line"/>
			<point x="240" y="460" type="line"/>
		</contour>
		<contour>
			<point x="240" y="520" type="line"/>
			<point x="60" y="520" type="line"/>
			<point x="60" y="690" type="line"/>
			<point x="240" y="690" type="line"/>
		</contour>
	</outline>
</glyph>
<glyph name="k" format="2">
	<unicode hex="006B"/>
	<advance width="666"/>
	<outline>
		<contour>
			<point x="225" y="140" type="line"/>
			<point x="225" y="322" type="line"/>
			<point x="246" y="328" type="line"/>
			<point x="334" y="460" type="line"/>
			<point x="559" y="460" type="line"/>
			<point x="414" y="262" type="line"/>
			<point x="564" y="0" type="line"/>
			<point x="344" y="0" type="line"/>
			<point x="263" y="151" type="line"/>
		</contour>
		<contour>
			<point x="45" y="0" type="line"/>
			<point x="45" y="700" type="line"/>
			<point x="225" y="700" type="line"/>
			<point x="225" y="0" type="line"/>
		</contour>
	</outline>
</glyph>
<glyph name="l" format="2">
	<unicode hex="006C"/>
	<advance width="280"/>
	<outline>
		<contour>
			<point x="230" y="0" type="line"/>
			<point x="50" y="0" type="line"/>
			<point x="50" y="700" type="line"/>
			<point x="230" y="700" type="line"/>
		</contour>
	</outline>
</glyph>
<glyph name="n" format="2">
	<unicode hex="006E"/>
	<advance width="588"/>
	<outline>
		<contour>
			<point x="208" y="271" type="line"/>
			<point x="208" y="382" type="line"/>
			<point x="230" y="382" type="line"/>
			<point x="273" y="445"/>
			<point x="322" y="474"/>
			<point x="383" y="474" type="curve" smooth="yes"/>
			<point x="492" y="474"/>
			<point x="538" y="422"/>
			<point x="538" y="299" type="curve" smooth="yes"/>
			<point x="538" y="0" type="line"/>
			<point x="358" y="0" type="line"/>
			<point x="358" y="242" type="line" smooth="yes"/>
			<point x="358" y="309"/>
			<point x="337" y="334"/>
			<point x="301" y="334" type="curve" smooth="yes"/>
			<point x="266" y="334"/>
			<point x="242" y="312"/>
			<point x="230" y="271" type="curve"/>
		</contour>
		<contour>
			<point x="50" y="0" type="line"/>
			<point x="50" y="460" type="line"/>
			<point x="210" y="460" type="line"/>
			<point x="226" y="382" type="line"/>
			<point x="230" y="382" type="line"/>
			<point x="230" y="0" type="line"/>
		</contour>
	</outline>
</glyph>
<glyph name="o" format="2">
	<unicode hex="006F"/>
	<advance width="590"/>
	<outline>
		<contour>
			<point x="220" y="230" type="curve" smooth="yes"/>
			<point x="220" y="129"/>
			<point x="255" y="90"/>
			<point x="295" y="90" type="curve" smooth="yes"/>
			<point x="336" y="90"/>
			<point x="370" y="123"/>
			<point x="370" y="230" type="curve" smooth="yes"/>
			<point x="370" y="331"/>
			<point x="335" y="370"/>
			<point x="295" y="370" type="curve" smooth="yes"/>
			<point x="254" y="370"/>
			<point x="220" y="337"/>
		</contour>
		<contour>
			<point x="30" y="230" type="curve" smooth="yes"/>
			<point x="30" y="371"/>
			<point x="115" y="474"/>
			<point x="295" y="474" type="curve" smooth="yes"/>
			<point x="477" y="474"/>
			<point x="560" y="372"/>
			<point x="560" y="230" type="curve" smooth="yes"/>
			<point x="560" y="89"/>
			<point x="475" y="-14"/>
			<point x="295" y="-14" type="curve" smooth="yes"/>
			<point x="113" y="-14"/>
			<point x="30" y="88"/>
		</contour>
	</outline>
	<anchor name="top" x="295" y="520"/>
</glyph>
<glyph name="p" format="2">
	<unicode hex="0070"/>
	<advance width="491"/>
	<outline>
		<contour>
			<point x="125" y="232" type="curve" smooth="yes"/>
			<point x="125" y="226" type="line" smooth="yes"/>
			<point x="125" y="123"/>
			<point x="176" y="55"/>
			<point x="245" y="55" type="curve" smooth="yes"/>
			<point x="338" y="55"/>
			<point x="376" y="123"/>
			<point x="376" y="231" type="curve" smooth="yes"/>
			<point x="376" y="306"/>
			<point x="357" y="405"/>
			<point x="245" y="405" type="curve" smooth="yes"/>
			<point x="162" y="405"/>
			<point x="125" y="316"/>
		</contour>
		<contour>
			<point x="45" y="-200" type="line"/>
			<point x="45" y="460" type="line"/>
			<point x="105" y="460" type="line"/>
			<point x="125" y="381" type="line"/>
			<point x="157" y="436"/>
			<point x="195" y="470"/>
			<point x="270" y="470" type="curve" smooth="yes"/>
			<point x="395" y="470"/>
			<point x="456" y="350"/>
			<point x="456" y="231" type="curve" smooth="yes"/>
			<point x="456" y="111"/>
			<point x="392" y="-10"/>
			<point x="266" y="-10" type="curve" smooth="yes"/>
			<point x="193" y="-10"/>
			<point x="156" y="21"/>
			<point x="125" y="74" type="curve"/>
			<point x="125" y="-200" type="line"/>
		</contour>
	</outline>
</glyph>
<glyph name="w" format="2">
	<unicode hex="0077"/>
	<advance width="724"/>
	<outline>
		<contour>
			<point x="156" y="0" type="line"/>
			<point x="35" y="460" type="line"/>
			<point x="115" y="460" type="line"/>
			<point x="215" y="65" type="line"/>
			<point x="322" y="460" type="line"/>
			<point x="402" y="460" type="line"/>
			<point x="502" y="65" type="line"/>
			<point x="609" y="460" type="line"/>
			<point x="689" y="460" type="line"/>
			<point x="553" y="0" type="line"/>
			<point x="443" y="0" type="line"/>
			<point x="360" y="317" type="line"/>
			<point x="266" y="0" type="line"/>
		</contour>
	</outline>
</glyph>
<glyph name="bar" format="2">
	<unicode hex="007C"/>
	<advance width="220"/>
	<outline>
		<contour>
			<point x="150" y="-80" type="line"/>
			<point x="70" y="-80" type="line"/>
			<point x="70" y="780" type="line"/>
			<point x="150" y="780" type="line"/>
		</contour>
	</outline>
</glyph>
<glyph name="exclamdown" format="2">
	<unicode hex="00A1"/>
	<advance width="190"/>
	<outline>
		<contour>
			<point x="50" y="-240" type="line"/>
			<point x="50" y="50" type="line"/>
			<point x="70" y="310" type="line"/>
			<point x="120" y="310" type="line"/>
			<point x="140" y="50" type="line"/>
			<point x="140" y="-240" type="line"/>
		</contour>
		<contour>
			<point name=".hr01" x="135" y="380" type="line"/>
			<point x="55" y="380" type="line"/>
			<point x="55" y="460" type="line"/>
			<point x="135" y="460" type="line"/>
		</contour>
	</outline>
</glyph>
<glyph name="cent" format="2">
	<unicode hex="00A2"/>
	<advance width="495"/>
	<outline>
		<contour>
			<point x="129" y="232" type="curve" smooth="yes"/>
			<point x="129" y="210"/>
			<point x="128" y="116"/>
			<point x="182" y="77" type="curve"/>
			<point x="279" y="409" type="line"/>
			<point x="145" y="420"/>
			<point x="129" y="298"/>
		</contour>
		<contour>
			<point x="49" y="228" type="curve" smooth="yes"/>
			<point x="49" y="448"/>
			<point x="202" y="473"/>
			<point x="253" y="473" type="curve" smooth="yes"/>
			<point x="258" y="473"/>
			<point x="269" y="473"/>
			<point x="296" y="469" type="curve"/>
			<point x="346" y="637" type="line"/>
			<point x="393" y="623" type="line"/>
			<point x="345" y="455" type="line"/>
			<point x="405" y="429"/>
			<point x="426" y="385"/>
			<point x="436" y="353" type="curve"/>
			<point x="443" y="326" type="line"/>
			<point x="367" y="314" type="line"/>
			<point x="363" y="333"/>
			<point x="355" y="363"/>
			<point x="326" y="388" type="curve"/>
			<point x="229" y="55" type="line"/>
			<point x="237" y="53"/>
			<point x="243" y="52"/>
			<point x="255" y="52" type="curve" smooth="yes"/>
			<point x="310" y="52"/>
			<point x="362" y="88"/>
			<point x="374" y="169" type="curve"/>
			<point x="451" y="160" type="line"/>
			<point x="431" y="61"/>
			<point x="363" y="-12"/>
			<point x="256" y="-12" type="curve" smooth="yes"/>
			<point x="236" y="-12"/>
			<point x="223" y="-9"/>
			<point x="212" y="-6" type="curve"/>
			<point x="161" y="-178" type="line"/>
			<point x="112" y="-164" type="line"/>
			<point x="162" y="9" type="line"/>
			<point x="95" y="41"/>
			<point x="49" y="116"/>
		</contour>
	</outline>
</glyph>
<glyph name="dieresis" format="2">
	<unicode hex="00A8"/>
	<advance width="338"/>
	<outline>
		<contour>
			<point x="130" y="520" type="line"/>
			<point x="50" y="520" type="line"/>
			<point x="50" y="600" type="line"/>
			<point x="130" y="600" type="line"/>
		</contour>
		<contour>
			<point x="288" y="520" type="line"/>
			<point x="208" y="520" type="line"/>
			<point x="208" y="600" type="line"/>
			<point x="288" y="600" type="line"/>
		</contour>
	</outline>
</glyph>
<glyph name="acute" format="2">
	<unicode hex="00B4"/>
	<advance width="346"/>
	<outline>
		<contour>
			<point x="220" y="490" type="line"/>
			<point x="40" y="490" type="line"/>
			<point x="110" y="700" type="line"/>
			<point x="306" y="700" type="line"/>
		</contour>
	</outline>
</glyph>
<glyph name="cedilla" format="2">
	<unicode hex="00B8"/>
	<advance width="452"/>
	<outline>
		<contour>
			<point x="141" y="-193" type="curve"/>
			<point x="141" y="-164" type="line"/>
			<point x="154" y="-167"/>
			<point x="175" y="-170"/>
			<point x="195" y="-170" type="curve" smooth="yes"/>
			<point x="236" y="-170"/>
			<point x="254" y="-148"/>
			<point x="254" y="-118" type="curve" smooth="yes"/>
			<point x="254" y="-82"/>
			<point x="205" y="-70"/>
			<point x="175" y="-67" type="curve"/>
			<point x="206" y="0" type="line"/>
			<point x="267" y="0" type="line"/>
			<point x="244" y="-46" type="line"/>
			<point x="267" y="-54"/>
			<point x="311" y="-70"/>
			<point x="311" y="-123" type="curve" smooth="yes"/>
			<point x="311" y="-177"/>
			<point x="266" y="-209"/>
			<point x="211" y="-209" type="curve" smooth="yes"/>
			<point x="178" y="-209"/>
			<point x="155" y="-200"/>
		</contour>
	</outline>
</glyph>
<glyph name="Aring" format="2">
	<unicode hex="00C5"/>
	<advance width="650"/>
	<outline>
		<contour>
			<point x="370" y="295" type="line"/>
			<point x="325" y="441" type="line"/>
			<point x="280" y="295" type="line"/>
		</contour>
		<contour>
			<point x="294" y="859" type="curve" smooth="yes"/>
			<point x="294" y="842"/>
			<point x="308" y="828"/>
			<point x="325" y="828" type="curve" smooth="yes"/>
			<point x="342" y="828"/>
			<point x="356" y="842"/>
			<point x="356" y="859" type="curve" smooth="yes"/>
			<point x="356" y="876"/>
			<point x="342" y="890"/>
			<point x="325" y="890" type="curve" smooth="yes"/>
			<point x="308" y="890"/>
			<point x="294" y="876"/>
		</contour>
		<contour>
			<point x="460" y="0" type="line"/>
			<point x="425" y="115" type="line"/>
			<point x="225" y="115" type="line"/>
			<point x="190" y="0" type="line"/>
			<point x="10" y="0" type="line"/>
			<point x="218" y="680" type="line"/>
			<point x="430" y="680" type="line"/>
			<point x="640" y="0" type="line"/>
		</contour>
		<contour>
			<point x="247" y="859" type="curve" smooth="yes"/>
			<point x="247" y="902"/>
			<point x="282" y="937"/>
			<point x="325" y="937" type="curve" smooth="yes"/>
			<point x="368" y="937"/>
			<point x="403" y="902"/>
			<point x="403" y="859" type="curve" smooth="yes"/>
			<point x="403" y="816"/>
			<point x="368" y="781"/>
			<point x="325" y="781" type="curve" smooth="yes"/>
			<point x="282" y="781"/>
			<point x="247" y="816"/>
		</contour>
	</outline>
</glyph>
<glyph name="Ccedilla" format="2">
	<unicode hex="00C7"/>
	<advance width="645"/>
	<outline>
		<contour>
			<point x="238" y="-193" type="curve"/>
			<point x="238" y="-164" type="line"/>
			<point x="251" y="-167"/>
			<point x="272" y="-170"/>
			<point x="292" y="-170" type="curve" smooth="yes"/>
			<point x="333" y="-170"/>
			<point x="351" y="-148"/>
			<point x="351" y="-118" type="curve" smooth="yes"/>
			<point x="351" y="-82"/>
			<point x="302" y="-70"/>
			<point x="272" y="-67" type="curve"/>
			<point x="300" y="-8" type="line"/>
			<point x="125" y="11"/>
			<point x="30" y="132"/>
			<point x="30" y="340" type="curve" smooth="yes"/>
			<point x="30" y="566"/>
			<point x="143" y="690"/>
			<point x="348" y="690" type="curve" smooth="yes"/>
			<point x="494" y="690"/>
			<point x="594" y="594"/>
			<point x="615" y="444" type="curve"/>
			<point x="455" y="444" type="line"/>
			<point x="444" y="502"/>
			<point x="403" y="530"/>
			<point x="348" y="530" type="curve" smooth="yes"/>
			<point x="264" y="530"/>
			<point x="210" y="455"/>
			<point x="210" y="340" type="curve" smooth="yes"/>
			<point x="210" y="225"/>
			<point x="264" y="150"/>
			<point x="348" y="150" type="curve" smooth="yes"/>
			<point x="399" y="150"/>
			<point x="445" y="181"/>
			<point x="455" y="224" type="curve"/>
			<point x="615" y="224" type="line"/>
			<point x="595" y="85"/>
			<point x="494" y="-5"/>
			<point x="359" y="-10" type="curve"/>
			<point x="341" y="-46" type="line"/>
			<point x="364" y="-54"/>
			<point x="408" y="-70"/>
			<point x="408" y="-123" type="curve" smooth="yes"/>
			<point x="408" y="-177"/>
			<point x="363" y="-209"/>
			<point x="308" y="-209" type="curve" smooth="yes"/>
			<point x="275" y="-209"/>
			<point x="252" y="-200"/>
		</contour>
	</outline>
</glyph>
<glyph name="Eth" format="2">
	<unicode hex="00D0"/>
	<advance width="660"/>
	<outline>
		<contour>
			<point x="290" y="320" type="line"/>
			<point x="140" y="320" type="line"/>
			<point x="140" y="80" type="line"/>
			<point x="328" y="80" type="line" smooth="yes"/>
			<point x="478" y="80"/>
			<point x="520" y="241"/>
			<point x="520" y="350" type="curve" smooth="yes"/>
			<point x="520" y="498"/>
			<point x="477" y="620"/>
			<point x="328" y="620" type="curve" smooth="yes"/>
			<point x="140" y="620" type="line"/>
			<point x="140" y="400" type="line"/>
			<point x="290" y="400" type="line"/>
		</contour>
		<contour>
			<point x="50" y="0" type="line"/>
			<point x="50" y="320" type="line"/>
			<point x="10" y="320" type="line"/>
			<point x="10" y="400" type="line"/>
			<point x="50" y="400" type="line"/>
			<point x="50" y="700" type="line"/>
			<point x="328" y="700" type="line" smooth="yes"/>
			<point x="528" y="700"/>
			<point x="610" y="534"/>
			<point x="610" y="350" type="curve" smooth="yes"/>
			<point x="610" y="147"/>
			<point x="519" y="0"/>
			<point x="328" y="0" type="curve" smooth="yes"/>
		</contour>
	</outline>
</glyph>
<glyph name="Ntilde" format="2">
	<unicode hex="00D1"/>
	<advance width="714"/>
	<outline>
		<contour>
			<point x="230" y="320" type="curve" smooth="yes"/>
			<point x="230" y="0" type="line"/>
			<point x="50" y="0" type="line"/>
			<point x="50" y="680" type="line"/>
			<point x="250" y="680" type="line"/>
			<point x="487" y="292" type="line"/>
			<point x="484" y="318"/>
			<point x="484" y="342"/>
			<point x="484" y="360" type="curve" smooth="yes"/>
			<point x="484" y="680" type="line"/>
			<point x="664" y="680" type="line"/>
			<point x="664" y="0" type="line"/>
			<point x="464" y="0" type="line"/>
			<point x="227" y="388" type="line"/>
			<point x="230" y="362"/>
			<point x="230" y="338"/>
		</contour>
		<contour>
			<point x="306" y="760" type="curve"/>
			<point x="256" y="760" type="line"/>
			<point x="270" y="847"/>
			<point x="306" y="880"/>
			<point name=".hr01" x="346" y="880" type="curve" smooth="yes"/>
			<point x="371" y="880"/>
			<point x="393" y="870"/>
			<point x="415" y="859" type="curve"/>
			<point x="431" y="850"/>
			<point x="452" y="840"/>
			<point name=".hr02" x="472" y="840" type="curve" smooth="yes"/>
			<point x="492" y="840"/>
			<point x="507" y="852"/>
			<point x="512" y="880" type="curve"/>
			<point name=".hr03" x="562" y="880" type="line"/>
			<point x="548" y="793"/>
			<point x="512" y="760"/>
			<point name=".hr04" x="472" y="760" type="curve" smooth="yes"/>
			<point x="447" y="760"/>
			<point x="426" y="769"/>
			<point x="405" y="780" type="curve" smooth="yes"/>
			<point x="388" y="789"/>
			<point x="366" y="800"/>
			<point name=".hr05" x="346" y="800" type="curve" smooth="yes"/>
			<point x="326" y="800"/>
			<point x="311" y="788"/>
		</contour>
	</outline>
</glyph>
<glyph name="ucircumflex" format="2">
	<unicode hex="00FB"/>
	<advance width="478"/>
	<outline>
		<contour>
			<point x="354" y="154" type="curve"/>
			<point x="354" y="460" type="line"/>
			<point x="433" y="460" type="line"/>
			<point x="433" y="0" type="line"/>
			<point x="374" y="0" type="line"/>
			<point x="357" y="83" type="line"/>
			<point x="323" y="36"/>
			<point x="275" y="-10"/>
			<point x="200" y="-10" type="curve" smooth="yes"/>
			<point x="51" y="-10"/>
			<point x="45" y="98"/>
			<point x="45" y="165" type="curve" smooth="yes"/>
			<point x="45" y="460" type="line"/>
			<point x="125" y="460" type="line"/>
			<point x="125" y="165" type="line" smooth="yes"/>
			<point x="125" y="121"/>
			<point x="134" y="55"/>
			<point x="222" y="55" type="curve" smooth="yes"/>
			<point x="266" y="55"/>
			<point x="330" y="90"/>
		</contour>
		<contour>
			<point x="239" y="610" type="line"/>
			<point x="163" y="520" type="line"/>
			<point x="69" y="520" type="line"/>
			<point x="169" y="700" type="line"/>
			<point x="309" y="700" type="line"/>
			<point x="409" y="520" type="line"/>
			<point x="315" y="520" type="line"/>
		</contour>
	</outline>
</glyph>
<glyph name="Cacute" format="2">
	<unicode hex="0106"/>
	<advance width="645"/>
	<outline>
		<contour>
			<point x="348" y="530" type="curve" smooth="yes"/>
			<point x="264" y="530"/>
			<point x="210" y="455"/>
			<point x="210" y="340" type="curve" smooth="yes"/>
			<point x="210" y="225"/>
			<point x="264" y="150"/>
			<point x="348" y="150" type="curve" smooth="yes"/>
			<point x="399" y="150"/>
			<point x="445" y="181"/>
			<point x="455" y="224" type="curve"/>
			<point x="615" y="224" type="line"/>
			<point x="594" y="81"/>
			<point x="488" y="-10"/>
			<point x="348" y="-10" type="curve" smooth="yes"/>
			<point x="143" y="-10"/>
			<point x="30" y="114"/>
			<point x="30" y="340" type="curve" smooth="yes"/>
			<point x="30" y="566"/>
			<point x="143" y="690"/>
			<point x="348" y="690" type="curve" smooth="yes"/>
			<point x="494" y="690"/>
			<point x="594" y="594"/>
			<point x="615" y="444" type="curve"/>
			<point x="455" y="444" type="line"/>
			<point x="444" y="502"/>
			<point x="403" y="530"/>
		</contour>
		<contour>
			<point x="517" y="920" type="line"/>
			<point x="431" y="710" type="line"/>
			<point x="251" y="710" type="line"/>
			<point x="321" y="920" type="line"/>
		</contour>
	</outline>
</glyph>
<glyph name="cacute" format="2">
	<unicode hex="0107"/>
	<advance width="510"/>
	<outline>
		<contour>
			<point x="287" y="520" type="line"/>
			<point x="223" y="520" type="line"/>
			<point x="273" y="680" type="line"/>
			<point x="353" y="680" type="line"/>
		</contour>
		<contour>
			<point x="50" y="230" type="curve" smooth="yes"/>
			<point x="50" y="348"/>
			<point x="95" y="470"/>
			<point x="259" y="470" type="curve" smooth="yes"/>
			<point x="378" y="470"/>
			<point x="437" y="405"/>
			<point x="459" y="320" type="curve"/>
			<point x="370" y="320" type="line"/>
			<point x="367" y="335"/>
			<point x="338" y="402"/>
			<point x="259" y="402" type="curve" smooth="yes"/>
			<point x="168" y="402"/>
			<point x="134" y="335"/>
			<point x="134" y="230" type="curve" smooth="yes"/>
			<point x="134" y="147"/>
			<point x="160" y="58"/>
			<point x="259" y="58" type="curve" smooth="yes"/>
			<point x="336" y="58"/>
			<point x="365" y="118"/>
			<point x="372" y="150" type="curve"/>
			<point x="460" y="150" type="line"/>
			<point x="440" y="79"/>
			<point x="387" y="-10"/>
			<point x="259" y="-10" type="curve" smooth="yes"/>
			<point x="94" y="-10"/>
			<point x="50" y="122"/>
		</contour>
	</outline>
</glyph>
<glyph name="Ccircumflex" format="2">
	<unicode hex="0108"/>
	<advance width="645"/>
	<outline>
		<contour>
			<point x="348" y="530" type="curve" smooth="yes"/>
			<point x="264" y="530"/>
			<point x="210" y="455"/>
			<point x="210" y="340" type="curve" smooth="yes"/>
			<point x="210" y="225"/>
			<point x="264" y="150"/>
			<point x="348" y="150" type="curve" smooth="yes"/>
			<point x="399" y="150"/>
			<point x="445" y="181"/>
			<point x="455" y="224" type="curve"/>
			<point x="615" y="224" type="line"/>
			<point x="594" y="81"/>
			<point x="488" y="-10"/>
			<point x="348" y="-10" type="curve" smooth="yes"/>
			<point x="143" y="-10"/>
			<point x="30" y="114"/>
			<point x="30" y="340" type="curve" smooth="yes"/>
			<point x="30" y="566"/>
			<point x="143" y="690"/>
			<point x="348" y="690" type="curve" smooth="yes"/>
			<point x="494" y="690"/>
			<point x="594" y="594"/>
			<point x="615" y="444" type="curve"/>
			<point x="455" y="444" type="line"/>
			<point x="444" y="502"/>
			<point x="403" y="530"/>
		</contour>
		<contour>
			<point x="340" y="830" type="line"/>
			<point x="264" y="740" type="line"/>
			<point x="170" y="740" type="line"/>
			<point x="270" y="920" type="line"/>
			<point x="410" y="920" type="line"/>
			<point x="510" y="740" type="line"/>
			<point x="416" y="740" type="line"/>
		</contour>
	</outline>
</glyph>
<glyph name="ccircumflex" format="2">
	<unicode hex="0109"/>
	<advance width="510"/>
	<outline>
		<contour>
			<point x="50" y="230" type="curve" smooth="yes"/>
			<point x="50" y="348"/>
			<point x="95" y="470"/>
			<point x="259" y="470" type="curve" smooth="yes"/>
			<point x="378" y="470"/>
			<point x="437" y="405"/>
			<point x="459" y="320" type="curve"/>
			<point x="370" y="320" type="line"/>
			<point x="367" y="335"/>
			<point x="338" y="402"/>
			<point x="259" y="402" type="curve" smooth="yes"/>
			<point x="168" y="402"/>
			<point x="134" y="335"/>
			<point x="134" y="230" type="curve" smooth="yes"/>
			<point x="134" y="147"/>
			<point x="160" y="58"/>
			<point x="259" y="58" type="curve" smooth="yes"/>
			<point x="336" y="58"/>
			<point x="365" y="118"/>
			<point x="372" y="150" type="curve"/>
			<point x="460" y="150" type="line"/>
			<point x="440" y="79"/>
			<point x="387" y="-10"/>
			<point x="259" y="-10" type="curve" smooth="yes"/>
			<point x="94" y="-10"/>
			<point x="50" y="122"/>
		</contour>
		<contour>
			<point x="255" y="610" type="line"/>
			<point x="179" y="520" type="line"/>
			<point x="85" y="520" type="line"/>
			<point x="185" y="700" type="line"/>
			<point x="325" y="700" type="line"/>
			<point x="425" y="520" type="line"/>
			<point x="331" y="520" type="line"/>
		</contour>
	</outline>
</glyph>
<glyph name="Cdotaccent" format="2">
	<unicode hex="010A"/>
	<advance width="645"/>
	<outline>
		<contour>
			<point x="348" y="530" type="curve" smooth="yes"/>
			<point x="264" y="530"/>
			<point x="210" y="455"/>
			<point x="210" y="340" type="curve" smooth="yes"/>
			<point x="210" y="225"/>
			<point x="264" y="150"/>
			<point x="348" y="150" type="curve" smooth="yes"/>
			<point x="399" y="150"/>
			<point x="445" y="181"/>
			<point x="455" y="224" type="curve"/>
			<point x="615" y="224" type="line"/>
			<point x="594" y="81"/>
			<point x="488" y="-10"/>
			<point x="348" y="-10" type="curve" smooth="yes"/>
			<point x="143" y="-10"/>
			<point x="30" y="114"/>
			<point x="30" y="340" type="curve" smooth="yes"/>
			<point x="30" y="566"/>
			<point x="143" y="690"/>
			<point x="348" y="690" type="curve" smooth="yes"/>
			<point x="494" y="690"/>
			<point x="594" y="594"/>
			<point x="615" y="444" type="curve"/>
			<point x="455" y="444" type="line"/>
			<point x="444" y="502"/>
			<point x="403" y="530"/>
		</contour>
		<contour>
			<point x="430" y="880" type="line"/>
			<point x="430" y="740" type="line"/>
			<point x="250" y="740" type="line"/>
			<point x="250" y="880" type="line"/>
		</contour>
	</outline>
</glyph>
<glyph name="cdotaccent" format="2">
	<unicode hex="010B"/>
	<advance width="510"/>
	<outline>
		<contour>
			<point x="395" y="560" type="line"/>
			<point x="215" y="560" type="line"/>
			<point x="215" y="700" type="line"/>
			<point x="395" y="700" type="line"/>
		</contour>
		<contour>
			<point x="50" y="230" type="curve" smooth="yes"/>
			<point x="50" y="348"/>
			<point x="95" y="470"/>
			<point x="259" y="470" type="curve" smooth="yes"/>
			<point x="378" y="470"/>
			<point x="437" y="405"/>
			<point x="459" y="320" type="curve"/>
			<point x="370" y="320" type="line"/>
			<point x="367" y="335"/>
			<point x="338" y="402"/>
			<point x="259" y="402" type="curve" smooth="yes"/>
			<point x="168" y="402"/>
			<point x="134" y="335"/>
			<point x="134" y="230" type="curve" smooth="yes"/>
			<point x="134" y="147"/>
			<point x="160" y="58"/>
			<point x="259" y="58" type="curve" smooth="yes"/>
			<point x="336" y="58"/>
			<point x="365" y="118"/>
			<point x="372" y="150" type="curve"/>
			<point x="460" y="150" type="line"/>
			<point x="440" y="79"/>
			<point x="387" y="-10"/>
			<point x="259" y="-10" type="curve" smooth="yes"/>
			<point x="94" y="-10"/>
			<point x="50" y="122"/>
		</contour>
	</outline>
</glyph>
<glyph name="Ccaron" format="2">
	<unicode hex="010C"/>
	<advance width="645"/>
	<outline>
		<contour>
			<point x="348" y="530" type="curve" smooth="yes"/>
			<point x="264" y="530"/>
			<point x="210" y="455"/>
			<point x="210" y="340" type="curve" smooth="yes"/>
			<point x="210" y="225"/>
			<point x="264" y="150"/>
			<point x="348" y="150" type="curve" smooth="yes"/>
			<point x="399" y="150"/>
			<point x="445" y="181"/>
			<point x="455" y="224" type="curve"/>
			<point x="615" y="224" type="line"/>
			<point x="594" y="81"/>
			<point x="488" y="-10"/>
			<point x="348" y="-10" type="curve" smooth="yes"/>
			<point x="143" y="-10"/>
			<point x="30" y="114"/>
			<point x="30" y="340" type="curve" smooth="yes"/>
			<point x="30" y="566"/>
			<point x="143" y="690"/>
			<point x="348" y="690" type="curve" smooth="yes"/>
			<point x="494" y="690"/>
			<point x="594" y="594"/>
			<point x="615" y="444" type="curve"/>
			<point x="455" y="444" type="line"/>
			<point x="444" y="502"/>
			<point x="403" y="530"/>
		</contour>
		<contour>
			<point x="380" y="740" type="line"/>
			<point x="300" y="740" type="line"/>
			<point x="200" y="900" type="line"/>
			<point x="264" y="900" type="line"/>
			<point x="340" y="815" type="line"/>
			<point x="416" y="900" type="line"/>
			<point x="480" y="900" type="line"/>
		</contour>
	</outline>
</glyph>
<glyph name="Dcaron" format="2">
	<unicode hex="010E"/>
	<advance width="640"/>
	<outline>
		<contour>
			<point x="230" y="520" type="line"/>
			<point x="230" y="160" type="line"/>
			<point x="308" y="160" type="line" smooth="yes"/>
			<point x="375" y="160"/>
			<point x="430" y="233"/>
			<point x="430" y="340" type="curve" smooth="yes"/>
			<point x="430" y="483"/>
			<point x="377" y="520"/>
			<point x="308" y="520" type="curve" smooth="yes"/>
		</contour>
		<contour>
			<point x="50" y="680" type="line"/>
			<point x="308" y="680" type="line" smooth="yes"/>
			<point x="498" y="680"/>
			<point x="610" y="564"/>
			<point x="610" y="340" type="curve" smooth="yes"/>
			<point x="610" y="113"/>
			<point x="499" y="0"/>
			<point x="308" y="0" type="curve" smooth="yes"/>
			<point x="50" y="0" type="line"/>
		</contour>
		<contour>
			<point x="360" y="760" type="line"/>
			<point x="280" y="760" type="line"/>
			<point x="180" y="920" type="line"/>
			<point x="244" y="920" type="line"/>
			<point x="320" y="835" type="line"/>
			<point x="396" y="920" type="line"/>
			<point x="460" y="920" type="line"/>
		</contour>
	</outline>
</glyph>
<glyph name="Emacron" format="2">
	<unicode hex="0112"/>
	<advance width="510"/>
	<outline>
		<contour>
			<point x="420" y="270" type="line"/>
			<point x="230" y="270" type="line"/>
			<point x="230" y="150" type="line"/>
			<point x="460" y="150" type="line"/>
			<point x="460" y="0" type="line"/>
			<point x="50" y="0" type="line"/>
			<point x="50" y="680" type="line"/>
			<point x="460" y="680" type="line"/>
			<point x="460" y="530" type="line"/>
			<point x="230" y="530" type="line"/>
			<point x="230" y="420" type="line"/>
			<point x="420" y="420" type="line"/>
		</contour>
		<contour>
			<point name=".hr01" x="390" y="860" type="line"/>
			<point x="390" y="790" type="line"/>
			<point x="120" y="790" type="line"/>
			<point x="120" y="860" type="line"/>
		</contour>
	</outline>
</glyph>
<glyph name="Ebreve" format="2">
	<unicode hex="0114"/>
	<advance width="510"/>
	<outline>
		<contour>
			<point x="420" y="270" type="line"/>
			<point x="230" y="270" type="line"/>
			<point x="230" y="150" type="line"/>
			<point x="460" y="150" type="line"/>
			<point x="460" y="0" type="line"/>
			<point x="50" y="0" type="line"/>
			<point x="50" y="680" type="line"/>
			<point x="460" y="680" type="line"/>
			<point x="460" y="530" type="line"/>
			<point x="230" y="530" type="line"/>
			<point x="230" y="420" type="line"/>
			<point x="420" y="420" type="line"/>
		</contour>
		<contour>
			<point name=".hr01" x="100" y="880" type="curve"/>
			<point x="180" y="880" type="line"/>
			<point x="180" y="820"/>
			<point x="220" y="800"/>
			<point x="255" y="800" type="curve" smooth="yes"/>
			<point x="290" y="800"/>
			<point x="330" y="820"/>
			<point x="330" y="880" type="curve"/>
			<point x="410" y="880" type="line"/>
			<point x="410" y="780"/>
			<point x="335" y="740"/>
			<point x="255" y="740" type="curve" smooth="yes"/>
			<point x="175" y="740"/>
			<point x="100" y="780"/>
		</contour>
	</outline>
</glyph>
<glyph name="Edotaccent" format="2">
	<unicode hex="0116"/>
	<advance width="510"/>
	<outline>
		<contour>
			<point x="420" y="270" type="line"/>
			<point x="230" y="270" type="line"/>
			<point x="230" y="150" type="line"/>
			<point x="460" y="150" type="line"/>
			<point x="460" y="0" type="line"/>
			<point x="50" y="0" type="line"/>
			<point x="50" y="680" type="line"/>
			<point x="460" y="680" type="line"/>
			<point x="460" y="530" type="line"/>
			<point x="230" y="530" type="line"/>
			<point x="230" y="420" type="line"/>
			<point x="420" y="420" type="line"/>
		</contour>
		<contour>
			<point name=".hr01" x="345" y="880" type="line"/>
			<point x="345" y="740" type="line"/>
			<point x="165" y="740" type="line"/>
			<point x="165" y="880" type="line"/>
		</contour>
	</outline>
</glyph>
<glyph name="Ecaron" format="2">
	<unicode hex="011A"/>
	<advance width="510"/>
	<outline>
		<contour>
			<point x="420" y="270" type="line"/>
			<point x="230" y="270" type="line"/>
			<point x="230" y="150" type="line"/>
			<point x="460" y="150" type="line"/>
			<point x="460" y="0" type="line"/>
			<point x="50" y="0" type="line"/>
			<point x="50" y="680" type="line"/>
			<point x="460" y="680" type="line"/>
			<point x="460" y="530" type="line"/>
			<point x="230" y="530" type="line"/>
			<point x="230" y="420" type="line"/>
			<point x="420" y="420" type="line"/>
		</contour>
		<contour>
			<point x="295" y="740" type="line"/>
			<point x="215" y="740" type="line"/>
			<point x="115" y="900" type="line"/>
			<point x="179" y="900" type="line"/>
			<point x="255" y="815" type="line"/>
			<point x="331" y="900" type="line"/>
			<point x="395" y="900" type="line"/>
		</contour>
	</outline>
</glyph>
<glyph name="Gcircumflex" format="2">
	<unicode hex="011C"/>
	<advance width="647"/>
	<outline>
		<contour>
			<point x="348" y="530" type="curve" smooth="yes"/>
			<point x="264" y="530"/>
			<point x="210" y="455"/>
			<point x="210" y="340" type="curve" smooth="yes"/>
			<point x="210" y="225"/>
			<point x="264" y="150"/>
			<point x="348" y="150" type="curve" smooth="yes"/>
			<point x="397" y="150"/>
			<point x="437" y="172"/>
			<point x="457" y="212" type="curve"/>
			<point x="457" y="230" type="line"/>
			<point x="347" y="230" type="line"/>
			<point x="347" y="350" type="line"/>
			<point x="607" y="350" type="line"/>
			<point x="607" y="0" type="line"/>
			<point x="457" y="0" type="line"/>
			<point x="457" y="23" type="line"/>
			<point x="432" y="4"/>
			<point x="385" y="-10"/>
			<point x="348" y="-10" type="curve" smooth="yes"/>
			<point x="143" y="-10"/>
			<point x="30" y="114"/>
			<point x="30" y="340" type="curve" smooth="yes"/>
			<point x="30" y="566"/>
			<point x="143" y="690"/>
			<point x="348" y="690" type="curve" smooth="yes"/>
			<point x="494" y="690"/>
			<point x="594" y="594"/>
			<point x="615" y="444" type="curve"/>
			<point x="455" y="444" type="line"/>
			<point x="444" y="502"/>
			<point x="403" y="530"/>
		</contour>
		<contour>
			<point x="320" y="830" type="line"/>
			<point x="244" y="740" type="line"/>
			<point x="150" y="740" type="line"/>
			<point x="250" y="920" type="line"/>
			<point x="390" y="920" type="line"/>
			<point x="490" y="740" type="line"/>
			<point x="396" y="740" type="line"/>
		</contour>
	</outline>
</glyph>
<glyph name="Gbreve" format="2">
	<unicode hex="011E"/>
	<advance width="647"/>
	<outline>
		<contour>
			<point x="348" y="530" type="curve" smooth="yes"/>
			<point x="264" y="530"/>
			<point x="210" y="455"/>
			<point x="210" y="340" type="curve" smooth="yes"/>
			<point x="210" y="225"/>
			<point x="264" y="150"/>
			<point x="348" y="150" type="curve" smooth="yes"/>
			<point x="397" y="150"/>
			<point x="437" y="172"/>
			<point x="457" y="212" type="curve"/>
			<point x="457" y="230" type="line"/>
			<point x="347" y="230" type="line"/>
			<point x="347" y="350" type="line"/>
			<point x="607" y="350" type="line"/>
			<point x="607" y="0" type="line"/>
			<point x="457" y="0" type="line"/>
			<point x="457" y="23" type="line"/>
			<point x="432" y="4"/>
			<point x="385" y="-10"/>
			<point x="348" y="-10" type="curve" smooth="yes"/>
			<point x="143" y="-10"/>
			<point x="30" y="114"/>
			<point x="30" y="340" type="curve" smooth="yes"/>
			<point x="30" y="566"/>
			<point x="143" y="690"/>
			<point x="348" y="690" type="curve" smooth="yes"/>
			<point x="494" y="690"/>
			<point x="594" y="594"/>
			<point x="615" y="444" type="curve"/>
			<point x="455" y="444" type="line"/>
			<point x="444" y="502"/>
			<point x="403" y="530"/>
		</contour>
		<contour>
			<point x="165" y="880" type="curve"/>
			<point name=".hr01" x="245" y="880" type="line"/>
			<point x="245" y="820"/>
			<point x="285" y="800"/>
			<point x="320" y="800" type="curve" smooth="yes"/>
			<point x="355" y="800"/>
			<point x="395" y="820"/>
			<point x="395" y="880" type="curve"/>
			<point x="475" y="880" type="line"/>
			<point x="475" y="780"/>
			<point x="400" y="740"/>
			<point x="320" y="740" type="curve" smooth="yes"/>
			<point x="240" y="740"/>
			<point x="165" y="780"/>
		</contour>
	</outline>
</glyph>
<glyph name="Gdotaccent" format="2">
	<unicode hex="0120"/>
	<advance width="647"/>
	<outline>
		<contour>
			<point x="348" y="530" type="curve" smooth="yes"/>
			<point x="264" y="530"/>
			<point x="210" y="455"/>
			<point x="210" y="340" type="curve" smooth="yes"/>
			<point x="210" y="225"/>
			<point x="264" y="150"/>
			<point x="348" y="150" type="curve" smooth="yes"/>
			<point x="397" y="150"/>
			<point x="437" y="172"/>
			<point x="457" y="212" type="curve"/>
			<point x="457" y="230" type="line"/>
			<point x="347" y="230" type="line"/>
			<point x="347" y="350" type="line"/>
			<point x="607" y="350" type="line"/>
			<point x="607" y="0" type="line"/>
			<point x="457" y="0" type="line"/>
			<point x="457" y="23" type="line"/>
			<point x="432" y="4"/>
			<point x="385" y="-10"/>
			<point x="348" y="-10" type="curve" smooth="yes"/>
			<point x="143" y="-10"/>
			<point x="30" y="114"/>
			<point x="30" y="340" type="curve" smooth="yes"/>
			<point x="30" y="566"/>
			<point x="143" y="690"/>
			<point x="348" y="690" type="curve" smooth="yes"/>
			<point x="494" y="690"/>
			<point x="594" y="594"/>
			<point x="615" y="444" type="curve"/>
			<point x="455" y="444" type="line"/>
			<point x="444" y="502"/>
			<point x="403" y="530"/>
		</contour>
		<contour>
			<point x="410" y="880" type="line"/>
			<point x="410" y="740" type="line"/>
			<point x="230" y="740" type="line"/>
			<point x="230" y="880" type="line"/>
		</contour>
	</outline>
</glyph>
<glyph name="gdotaccent" format="2">
	<unicode hex="0121"/>
	<advance width="492"/>
	<outline>
		<contour>
			<point x="115" y="230" type="curve" smooth="yes"/>
			<point x="115" y="159"/>
			<point x="141" y="65"/>
			<point x="246" y="65" type="curve" smooth="yes"/>
			<point x="331" y="65"/>
			<point x="367" y="143"/>
			<point x="367" y="210" type="curve" smooth="yes"/>
			<point x="367" y="245" type="line" smooth="yes"/>
			<point x="367" y="347"/>
			<point x="311" y="405"/>
			<point x="246" y="405" type="curve" smooth="yes"/>
			<point x="156" y="405"/>
			<point x="115" y="337"/>
		</contour>
		<contour>
			<point x="35" y="230" type="curve" smooth="yes"/>
			<point x="35" y="355"/>
			<point x="96" y="470"/>
			<point x="226" y="470" type="curve" smooth="yes"/>
			<point x="284" y="470"/>
			<point x="344" y="439"/>
			<point x="367" y="388" type="curve"/>
			<point x="387" y="459" type="line"/>
			<point x="447" y="459" type="line"/>
			<point x="447" y="27" type="line" smooth="yes"/>
			<point x="447" y="-146"/>
			<point x="362" y="-200"/>
			<point x="244" y="-200" type="curve" smooth="yes"/>
			<point x="114" y="-200"/>
			<point x="62" y="-106"/>
			<point x="52" y="-54" type="curve"/>
			<point x="135" y="-54" type="line"/>
			<point x="153" y="-113"/>
			<point x="206" y="-134"/>
			<point x="244" y="-134" type="curve" smooth="yes"/>
			<point x="316" y="-134"/>
			<point x="367" y="-91"/>
			<point x="367" y="27" type="curve" smooth="yes"/>
			<point x="367" y="89" type="line"/>
			<point x="339" y="33"/>
			<point x="286" y="-1"/>
			<point x="227" y="-1" type="curve" smooth="yes"/>
			<point x="56" y="-1"/>
			<point x="35" y="144"/>
		</contour>
		<contour>
			<point x="381" y="700" type="line"/>
			<point x="381" y="560" type="line"/>
			<point name=".hr01" x="201" y="560" type="line"/>
			<point x="201" y="700" type="line"/>
		</contour>
	</outline>
</glyph>
<glyph name="uni0122" format="2">
	<unicode hex="0122"/>
	<advance width="647"/>
	<outline>
		<contour>
			<point x="348" y="530" type="curve" smooth="yes"/>
			<point x="264" y="530"/>
			<point x="210" y="455"/>
			<point x="210" y="340" type="curve" smooth="yes"/>
			<point x="210" y="225"/>
			<point x="264" y="150"/>
			<point x="348" y="150" type="curve" smooth="yes"/>
			<point x="397" y="150"/>
			<point x="437" y="172"/>
			<point x="457" y="212" type="curve"/>
			<point x="457" y="230" type="line"/>
			<point x="347" y="230" type="line"/>
			<point x="347" y="350" type="line"/>
			<point x="607" y="350" type="line"/>
			<point x="607" y="0" type="line"/>
			<point x="457" y="0" type="line"/>
			<point x="457" y="23" type="line"/>
			<point x="432" y="4"/>
			<point x="385" y="-10"/>
			<point x="348" y="-10" type="curve" smooth="yes"/>
			<point x="143" y="-10"/>
			<point x="30" y="114"/>
			<point x="30" y="340" type="curve" smooth="yes"/>
			<point x="30" y="566"/>
			<point x="143" y="690"/>
			<point x="348" y="690" type="curve" smooth="yes"/>
			<point x="494" y="690"/>
			<point x="594" y="594"/>
			<point x="615" y="444" type="curve"/>
			<point x="455" y="444" type="line"/>
			<point x="444" y="502"/>
			<point x="403" y="530"/>
		</contour>
		<contour>
			<point x="306" y="-140" type="line"/>
			<point x="284" y="-140" type="line"/>
			<point x="284" y="-60" type="line"/>
			<point x="364" y="-60" type="line"/>
			<point x="364" y="-140" type="line"/>
			<point x="318" y="-270" type="line"/>
			<point x="284" y="-270" type="line"/>
		</contour>
	</outline>
</glyph>
<glyph name="uni0123" format="2">
	<unicode hex="0123"/>
	<advance width="491"/>
	<outline>
		<contour>
			<point x="115" y="230" type="curve" smooth="yes"/>
			<point x="115" y="155"/>
			<point x="141" y="55"/>
			<point x="245" y="55" type="curve" smooth="yes"/>
			<point x="330" y="55"/>
			<point x="366" y="138"/>
			<point x="366" y="210" type="curve" smooth="yes"/>
			<point x="366" y="245" type="line" smooth="yes"/>
			<point x="366" y="347"/>
			<point x="310" y="405"/>
			<point x="245" y="405" type="curve" smooth="yes"/>
			<point x="156" y="405"/>
			<point x="115" y="337"/>
		</contour>
		<contour>
			<point x="36" y="229" type="curve"/>
			<point x="35" y="230" type="line"/>
			<point x="35" y="355"/>
			<point x="96" y="470"/>
			<point x="225" y="470" type="curve" smooth="yes"/>
			<point x="283" y="470"/>
			<point x="343" y="439"/>
			<point x="366" y="388" type="curve"/>
			<point x="366" y="459" type="line"/>
			<point x="446" y="459" type="line"/>
			<point x="446" y="17" type="line" smooth="yes"/>
			<point x="446" y="-148"/>
			<point x="368" y="-200"/>
			<point x="257" y="-200" type="curve" smooth="yes"/>
			<point x="131" y="-200"/>
			<point x="83" y="-119"/>
			<point x="71" y="-74" type="curve"/>
			<point x="154" y="-60" type="line"/>
			<point x="172" y="-107"/>
			<point x="220" y="-122"/>
			<point x="254" y="-122" type="curve" smooth="yes"/>
			<point x="263" y="-122" type="line"/>
			<point x="320" y="-116"/>
			<point x="366" y="-85"/>
			<point x="366" y="17" type="curve" smooth="yes"/>
			<point x="366" y="79" type="line"/>
			<point x="338" y="23"/>
			<point x="285" y="-11"/>
			<point x="226" y="-11" type="curve" smooth="yes"/>
			<point x="97" y="-11"/>
			<point x="36" y="105"/>
		</contour>
		<contour>
			<point x="265" y="600" type="line"/>
			<point x="265" y="520" type="line"/>
			<point x="185" y="520" type="line"/>
			<point x="185" y="600" type="line"/>
			<point x="231" y="730" type="line"/>
			<point x="265" y="730" type="line"/>
			<point x="243" y="600" type="line"/>
		</contour>
	</outline>
</glyph>
<glyph name="Hcircumflex" format="2">
	<unicode hex="0124"/>
	<advance width="660"/>
	<outline>
		<contour>
			<point x="610" y="680" type="line"/>
			<point x="610" y="0" type="line"/>
			<point x="430" y="0" type="line"/>
			<point x="430" y="257" type="line"/>
			<point x="230" y="257" type="line"/>
			<point x="230" y="0" type="line"/>
			<point x="50" y="0" type="line"/>
			<point x="50" y="680" type="line"/>
			<point x="230" y="680" type="line"/>
			<point x="230" y="417" type="line"/>
			<point x="430" y="417" type="line"/>
			<point x="430" y="680" type="line"/>
		</contour>
		<contour>
			<point x="330" y="850" type="line"/>
			<point x="254" y="760" type="line"/>
			<point x="160" y="760" type="line"/>
			<point x="260" y="940" type="line"/>
			<point x="400" y="940" type="line"/>
			<point x="500" y="760" type="line"/>
			<point x="406" y="760" type="line"/>
		</contour>
	</outline>
</glyph>
<glyph name="Itilde" format="2">
	<unicode hex="0128"/>
	<advance width="280"/>
	<outline>
		<contour>
			<point x="230" y="0" type="line"/>
			<point x="50" y="0" type="line"/>
			<point x="50" y="680" type="line"/>
			<point x="230" y="680" type="line"/>
		</contour>
		<contour>
			<point x="37" y="760" type="curve"/>
			<point x="-13" y="760" type="line"/>
			<point x="1" y="847"/>
			<point name=".hr01" x="37" y="880"/>
			<point x="77" y="880" type="curve" smooth="yes"/>
			<point x="102" y="880"/>
			<point x="124" y="870"/>
			<point x="146" y="859" type="curve"/>
			<point x="162" y="850"/>
			<point name=".hr02" x="183" y="840"/>
			<point x="203" y="840" type="curve" smooth="yes"/>
			<point x="223" y="840"/>
			<point x="238" y="852"/>
			<point name=".hr03" x="243" y="880" type="curve"/>
			<point x="293" y="880" type="line"/>
			<point x="279" y="793"/>
			<point name=".hr04" x="243" y="760"/>
			<point x="203" y="760" type="curve" smooth="yes"/>
			<point x="178" y="760"/>
			<point x="157" y="769"/>
			<point x="136" y="780" type="curve" smooth="yes"/>
			<point x="119" y="789"/>
			<point name=".hr05" x="97" y="800"/>
			<point x="77" y="800" type="curve" smooth="yes"/>
			<point x="57" y="800"/>
			<point x="42" y="788"/>
		</contour>
	</outline>
</glyph>
<glyph name="Ibreve" format="2">
	<unicode hex="012C"/>
	<advance width="280"/>
	<outline>
		<contour>
			<point x="230" y="0" type="line"/>
			<point x="50" y="0" type="line"/>
			<point x="50" y="680" type="line"/>
			<point x="230" y="680" type="line"/>
		</contour>
		<contour>
			<point name=".hr01" x="-15" y="880" type="curve"/>
			<point x="65" y="880" type="line"/>
			<point x="65" y="820"/>
			<point x="105" y="800"/>
			<point x="140" y="800" type="curve" smooth="yes"/>
			<point x="175" y="800"/>
			<point x="215" y="820"/>
			<point x="215" y="880" type="curve"/>
			<point x="295" y="880" type="line"/>
			<point x="295" y="780"/>
			<point x="220" y="740"/>
			<point x="140" y="740" type="curve" smooth="yes"/>
			<point x="60" y="740"/>
			<point x="-15" y="780"/>
		</contour>
	</outline>
</glyph>
<glyph name="ibreve" format="2">
	<unicode hex="012D"/>
	<advance width="280"/>
	<outline>
		<contour>
			<point x="-15" y="660" type="curve"/>
			<point x="65" y="660" type="line"/>
			<point x="65" y="600"/>
			<point x="105" y="580"/>
			<point x="140" y="580" type="curve" smooth="yes"/>
			<point x="175" y="580"/>
			<point x="215" y="600"/>
			<point x="215" y="660" type="curve"/>
			<point x="295" y="660" type="line"/>
			<point x="295" y="560"/>
			<point x="220" y="520"/>
			<point x="140" y="520" type="curve" smooth="yes"/>
			<point x="60" y="520"/>
			<point x="-15" y="560"/>
		</contour>
		<contour>
			<point x="280" y="0" type="line"/>
			<point name=".hr01" x="100" y="0" type="line"/>
			<point x="100" y="460" type="line"/>
			<point x="280" y="460" type="line"/>
		</contour>
	</outline>
</glyph>
<glyph name="Iogonek" format="2">
	<unicode hex="012E"/>
	<advance width="280"/>
	<outline>
		<contour>
			<point x="34" y="-124" type="curve" smooth="yes"/>
			<point x="34" y="-70"/>
			<point x="71" y="-25"/>
			<point x="105" y="0" type="curve"/>
			<point name=".hr01" x="50" y="0" type="line"/>
			<point x="50" y="680" type="line"/>
			<point x="230" y="680" type="line"/>
			<point x="230" y="0" type="line"/>
			<point x="225" y="0" type="line"/>
			<point x="184" y="-31"/>
			<point name=".hr02" x="175" y="-55"/>
			<point x="175" y="-74" type="curve" smooth="yes"/>
			<point x="175" y="-91"/>
			<point x="188" y="-100"/>
			<point x="202" y="-100" type="curve" smooth="yes"/>
			<point x="210" y="-100"/>
			<point x="220" y="-94"/>
			<point x="229" y="-87" type="curve"/>
			<point x="245" y="-182" type="line"/>
			<point x="225" y="-196"/>
			<point x="182" y="-210"/>
			<point x="136" y="-210" type="curve" smooth="yes"/>
			<point x="73" y="-210"/>
			<point x="34" y="-180"/>
		</contour>
	</outline>
</glyph>
<glyph name="Idotaccent" format="2">
	<unicode hex="0130"/>
	<advance width="280"/>
	<outline>
		<contour>
			<point x="230" y="0" type="line"/>
			<point x="50" y="0" type="line"/>
			<point x="50" y="680" type="line"/>
			<point x="230" y="680" type="line"/>
		</contour>
		<contour>
			<point x="230" y="740" type="line"/>
			<point x="50" y="740" type="line"/>
			<point x="50" y="880" type="line"/>
			<point x="230" y="880" type="line"/>
		</contour>
	</outline>
</glyph>
<glyph name="dotlessi" format="2">
	<unicode hex="0131"/>
	<advance width="340"/>
	<outline>
		<contour>
			<point x="260" y="0" type="line"/>
			<point x="80" y="0" type="line"/>
			<point x="80" y="460" type="line"/>
			<point x="260" y="460" type="line"/>
		</contour>
	</outline>
	<anchor name="top" x="170" y="520"/>
</glyph>
<glyph name="Jcircumflex" format="2">
	<unicode hex="0134"/>
	<advance width="286"/>
	<outline>
		<contour>
			<point x="124" y="0" type="curve" smooth="yes"/>
			<point x="50" y="0" type="line"/>
			<point x="50" y="160" type="line"/>
			<point x="76" y="160" type="line" smooth="yes"/>
			<point x="116" y="160"/>
			<point x="148" y="176"/>
			<point x="148" y="240" type="curve" smooth="yes"/>
			<point x="148" y="680" type="line"/>
			<point x="328" y="680" type="line"/>
			<point x="328" y="244" type="line" smooth="yes"/>
			<point x="328" y="110"/>
			<point x="296" y="0"/>
		</contour>
		<contour>
			<point x="193" y="840" type="line"/>
			<point x="117" y="750" type="line"/>
			<point x="23" y="750" type="line"/>
			<point x="123" y="930" type="line"/>
			<point x="263" y="930" type="line"/>
			<point x="363" y="750" type="line"/>
			<point x="269" y="750" type="line"/>
		</contour>
	</outline>
</glyph>
<glyph name="jcircumflex" format="2">
	<unicode hex="0135"/>
	<advance width="220"/>
	<outline>
		<contour>
			<point x="-103" y="-90" type="curve"/>
			<point x="-24" y="-90" type="line"/>
			<point x="-8" y="-114"/>
			<point x="7" y="-120"/>
			<point x="30" y="-120" type="curve" smooth="yes"/>
			<point x="55" y="-120"/>
			<point x="70" y="-103"/>
			<point x="70" y="-55" type="curve" smooth="yes"/>
			<point x="70" y="460" type="line"/>
			<point x="150" y="460" type="line"/>
			<point x="150" y="-31" type="line" smooth="yes"/>
			<point x="150" y="-139"/>
			<point x="93" y="-200"/>
			<point x="28" y="-200" type="curve" smooth="yes"/>
			<point x="-36" y="-200"/>
			<point x="-87" y="-149"/>
		</contour>
		<contour>
			<point x="110" y="610" type="line"/>
			<point x="34" y="520" type="line"/>
			<point x="-60" y="520" type="line"/>
			<point x="40" y="700" type="line"/>
			<point x="180" y="700" type="line"/>
			<point x="280" y="520" type="line"/>
			<point x="186" y="520" type="line"/>
		</contour>
	</outline>
</glyph>
<glyph name="uni0136" format="2">
	<unicode hex="0136"/>
	<advance width="710"/>
	<outline>
		<contour>
			<point x="230" y="233" type="line"/>
			<point x="230" y="0" type="line"/>
			<point x="50" y="0" type="line"/>
			<point x="50" y="680" type="line"/>
			<point x="230" y="680" type="line"/>
			<point x="230" y="380" type="line"/>
			<point x="290" y="397" type="line"/>
			<point x="460" y="680" type="line"/>
			<point x="660" y="680" type="line"/>
			<point x="460" y="350" type="line"/>
			<point x="700" y="0" type="line"/>
			<point x="480" y="0" type="line"/>
			<point x="308" y="259" type="line"/>
		</contour>
		<contour>
			<point x="337" y="-140" type="line"/>
			<point x="315" y="-140" type="line"/>
			<point x="315" y="-60" type="line"/>
			<point x="395" y="-60" type="line"/>
			<point x="395" y="-140" type="line"/>
			<point x="349" y="-270" type="line"/>
			<point x="315" y="-270" type="line"/>
		</contour>
	</outline>
</glyph>
<glyph name="kgreenlandic" format="2">
	<unicode hex="0138"/>
	<advance width="422"/>
	<outline>
		<contour>
			<point x="125" y="0" type="line"/>
			<point x="45" y="0" type="line"/>
			<point x="45" y="147"/>
			<point x="45" y="293"/>
			<point x="45" y="440" type="curve"/>
			<point x="125" y="460" type="line"/>
			<point x="125" y="290" type="line"/>
			<point x="157" y="300" type="line"/>
			<point x="282" y="460" type="line"/>
			<point x="382" y="460" type="line"/>
			<point x="229" y="266" type="line"/>
			<point x="402" y="0" type="line"/>
			<point x="302" y="0" type="line"/>
			<point x="157" y="220" type="line"/>
			<point x="125" y="210" type="line"/>
		</contour>
	</outline>
</glyph>
<glyph name="Lacute" format="2">
	<unicode hex="0139"/>
	<advance width="510"/>
	<outline>
		<contour>
			<point x="230" y="680" type="line"/>
			<point x="230" y="160" type="line"/>
			<point x="500" y="160" type="line"/>
			<point x="500" y="0" type="line"/>
			<point x="50" y="0" type="line"/>
			<point x="50" y="680" type="line"/>
		</contour>
		<contour>
			<point x="272" y="920" type="line"/>
			<point x="186" y="710" type="line"/>
			<point x="6" y="710" type="line"/>
			<point x="76" y="920" type="line"/>
		</contour>
	</outline>
</glyph>
<glyph name="Ldot" format="2">
	<unicode hex="013F"/>
	<advance width="510"/>
	<outline>
		<contour>
			<point x="295" y="395" type="line"/>
			<point x="295" y="315" type="line"/>
			<point x="215" y="315" type="line"/>
			<point x="215" y="395" type="line"/>
		</contour>
		<contour>
			<point x="460" y="80" type="line"/>
			<point x="460" y="0" type="line"/>
			<point x="50" y="0" type="line"/>
			<point x="50" y="700" type="line"/>
			<point x="140" y="700" type="line"/>
			<point x="140" y="80" type="line"/>
		</contour>
	</outline>
</glyph>
<glyph name="uni0145" format="2">
	<unicode hex="0145"/>
	<advance width="600"/>
	<outline>
		<contour>
			<point x="140" y="320" type="curve" smooth="yes"/>
			<point x="140" y="0" type="line"/>
			<point x="-40" y="0" type="line"/>
			<point x="-40" y="680" type="line"/>
			<point x="160" y="680" type="line"/>
			<point x="397" y="292" type="line"/>
			<point x="394" y="318"/>
			<point x="394" y="342"/>
			<point x="394" y="360" type="curve" smooth="yes"/>
			<point x="394" y="680" type="line"/>
			<point x="574" y="680" type="line"/>
			<point x="574" y="0" type="line"/>
			<point x="374" y="0" type="line"/>
			<point x="137" y="388" type="line"/>
			<point x="140" y="362"/>
			<point x="140" y="338"/>
		</contour>
		<contour>
			<point x="282" y="-140" type="line"/>
			<point x="260" y="-140" type="line"/>
			<point x="260" y="-60" type="line"/>
			<point x="340" y="-60" type="line"/>
			<point x="340" y="-140" type="line"/>
			<point x="294" y="-270" type="line"/>
			<point x="260" y="-270" type="line"/>
		</contour>
	</outline>
</glyph>
<glyph name="uni0146" format="2">
	<unicode hex="0146"/>
	<advance width="478"/>
	<outline>
		<contour>
			<point x="199" y="-60" type="curve"/>
			<point x="279" y="-60" type="line"/>
			<point x="279" y="-140" type="line"/>
			<point x="233" y="-270" type="line"/>
			<point x="199" y="-270" type="line"/>
			<point x="221" y="-140" type="line"/>
			<point x="199" y="-140" type="line"/>
			<point x="199" y="-113"/>
			<point x="199" y="-87"/>
		</contour>
		<contour>
			<point x="125" y="0" type="line"/>
			<point x="46" y="0" type="line"/>
			<point x="46" y="460" type="line"/>
			<point x="126" y="460" type="line"/>
			<point x="126" y="370" type="line"/>
			<point x="167" y="417"/>
			<point x="237" y="470"/>
			<point x="307" y="470" type="curve" smooth="yes"/>
			<point x="428" y="470"/>
			<point x="433" y="382"/>
			<point x="433" y="300" type="curve" smooth="yes"/>
			<point x="433" y="0" type="line"/>
			<point x="353" y="0" type="line"/>
			<point x="353" y="270" type="line" smooth="yes"/>
			<point x="353" y="325"/>
			<point x="354" y="365"/>
			<point x="333" y="388" type="curve" smooth="yes"/>
			<point x="323" y="399"/>
			<point x="309" y="405"/>
			<point x="287" y="405" type="curve" smooth="yes"/>
			<point x="223" y="405"/>
			<point x="125" y="343"/>
			<point x="125" y="230" type="curve" smooth="yes"/>
		</contour>
	</outline>
</glyph>
<glyph name="Omacron" format="2">
	<unicode hex="014C"/>
	<advance width="696"/>
	<outline>
		<contour>
			<point x="348" y="530" type="curve" smooth="yes"/>
			<point x="264" y="530"/>
			<point x="210" y="455"/>
			<point x="210" y="340" type="curve" smooth="yes"/>
			<point x="210" y="225"/>
			<point x="264" y="150"/>
			<point x="348" y="150" type="curve" smooth="yes"/>
			<point x="432" y="150"/>
			<point x="486" y="225"/>
			<point x="486" y="340" type="curve" smooth="yes"/>
			<point x="486" y="455"/>
			<point x="432" y="530"/>
		</contour>
		<contour>
			<point x="348" y="-10" type="curve" smooth="yes"/>
			<point x="143" y="-10"/>
			<point x="30" y="114"/>
			<point x="30" y="340" type="curve" smooth="yes"/>
			<point x="30" y="566"/>
			<point x="143" y="690"/>
			<point x="348" y="690" type="curve" smooth="yes"/>
			<point x="553" y="690"/>
			<point x="666" y="566"/>
			<point x="666" y="340" type="curve" smooth="yes"/>
			<point x="666" y="114"/>
			<point x="553" y="-10"/>
		</contour>
		<contour>
			<point x="485" y="860" type="line"/>
			<point x="485" y="790" type="line"/>
			<point x="215" y="790" type="line"/>
			<point x="215" y="860" type="line"/>
		</contour>
	</outline>
</glyph>
<glyph name="Obreve" format="2">
	<unicode hex="014E"/>
	<advance width="696"/>
	<outline>
		<contour>
			<point x="348" y="530" type="curve" smooth="yes"/>
			<point x="264" y="530"/>
			<point x="210" y="455"/>
			<point x="210" y="340" type="curve" smooth="yes"/>
			<point x="210" y="225"/>
			<point x="264" y="150"/>
			<point x="348" y="150" type="curve" smooth="yes"/>
			<point x="432" y="150"/>
			<point x="486" y="225"/>
			<point x="486" y="340" type="curve" smooth="yes"/>
			<point x="486" y="455"/>
			<point x="432" y="530"/>
		</contour>
		<contour>
			<point x="348" y="-10" type="curve" smooth="yes"/>
			<point x="143" y="-10"/>
			<point x="30" y="114"/>
			<point x="30" y="340" type="curve" smooth="yes"/>
			<point x="30" y="566"/>
			<point x="143" y="690"/>
			<point x="348" y="690" type="curve" smooth="yes"/>
			<point x="553" y="690"/>
			<point x="666" y="566"/>
			<point x="666" y="340" type="curve" smooth="yes"/>
			<point x="666" y="114"/>
			<point x="553" y="-10"/>
		</contour>
		<contour>
			<point x="195" y="880" type="curve"/>
			<point x="275" y="880" type="line"/>
			<point name=".hr01" x="275" y="820"/>
			<point x="315" y="800"/>
			<point x="350" y="800" type="curve" smooth="yes"/>
			<point x="385" y="800"/>
			<point x="425" y="820"/>
			<point x="425" y="880" type="curve"/>
			<point x="505" y="880" type="line"/>
			<point x="505" y="780"/>
			<point x="430" y="740"/>
			<point x="350" y="740" type="curve" smooth="yes"/>
			<point x="270" y="740"/>
			<point x="195" y="780"/>
		</contour>
	</outline>
</glyph>
<glyph name="Ohungarumlaut" format="2">
	<unicode hex="0150"/>
	<advance width="696"/>
	<outline>
		<contour>
			<point x="348" y="530" type="curve" smooth="yes"/>
			<point x="264" y="530"/>
			<point x="210" y="455"/>
			<point x="210" y="340" type="curve" smooth="yes"/>
			<point x="210" y="225"/>
			<point x="264" y="150"/>
			<point x="348" y="150" type="curve" smooth="yes"/>
			<point x="432" y="150"/>
			<point x="486" y="225"/>
			<point x="486" y="340" type="curve" smooth="yes"/>
			<point x="486" y="455"/>
			<point x="432" y="530"/>
		</contour>
		<contour>
			<point x="348" y="-10" type="curve" smooth="yes"/>
			<point x="143" y="-10"/>
			<point x="30" y="114"/>
			<point x="30" y="340" type="curve" smooth="yes"/>
			<point x="30" y="566"/>
			<point x="143" y="690"/>
			<point x="348" y="690" type="curve" smooth="yes"/>
			<point x="553" y="690"/>
			<point x="666" y="566"/>
			<point x="666" y="340" type="curve" smooth="yes"/>
			<point x="666" y="114"/>
			<point x="553" y="-10"/>
		</contour>
		<contour>
			<point x="356" y="910" type="line"/>
			<point x="295" y="730" type="line"/>
			<point x="231" y="730" type="line"/>
			<point x="276" y="910" type="line"/>
		</contour>
		<contour>
			<point x="466" y="910" type="line"/>
			<point x="390" y="730" type="line"/>
			<point x="326" y="730" type="line"/>
			<point x="386" y="910" type="line"/>
		</contour>
	</outline>
</glyph>
<glyph name="Sacute" format="2">
	<unicode hex="015A"/>
	<advance width="582"/>
	<outline>
		<contour>
			<point x="322" y="750" type="line"/>
			<point x="258" y="750" type="line"/>
			<point x="308" y="910" type="line"/>
			<point x="388" y="910" type="line"/>
		</contour>
		<contour>
			<point x="31" y="223" type="curve"/>
			<point x="221" y="223" type="line"/>
			<point x="221" y="183"/>
			<point x="244" y="150"/>
			<point x="291" y="150" type="curve" smooth="yes"/>
			<point x="341" y="150"/>
			<point x="362" y="170"/>
			<point x="362" y="194" type="curve" smooth="yes"/>
			<point x="362" y="222"/>
			<point x="348" y="243"/>
			<point x="326" y="255" type="curve" smooth="yes"/>
			<point x="139" y="358" type="line" smooth="yes"/>
			<point x="85" y="388"/>
			<point name=".hr01" x="49" y="430"/>
			<point x="49" y="492" type="curve" smooth="yes"/>
			<point x="49" y="612"/>
			<point x="140" y="690"/>
			<point x="299" y="690" type="curve" smooth="yes"/>
			<point x="443" y="690"/>
			<point x="550" y="590"/>
			<point x="550" y="481" type="curve"/>
			<point x="360" y="481" type="line"/>
			<point x="360" y="506"/>
			<point x="342" y="530"/>
			<point x="290" y="530" type="curve" smooth="yes"/>
			<point x="254" y="530"/>
			<point x="239" y="522"/>
			<point x="239" y="493" type="curve" smooth="yes"/>
			<point x="239" y="479"/>
			<point x="246" y="470"/>
			<point x="274" y="455" type="curve" smooth="yes"/>
			<point x="449" y="360" type="line" smooth="yes"/>
			<point x="516" y="324"/>
			<point x="552" y="274"/>
			<point x="552" y="191" type="curve" smooth="yes"/>
			<point x="552" y="69"/>
			<point x="459" y="-10"/>
			<point x="284" y="-10" type="curve" smooth="yes"/>
			<point x="136" y="-10"/>
			<point name=".hr02" x="31" y="91"/>
		</contour>
	</outline>
</glyph>
<glyph name="scircumflex" format="2">
	<unicode hex="015D"/>
	<advance width="452"/>
	<outline>
		<contour>
			<point x="35" y="136" type="curve"/>
			<point x="114" y="136" type="line"/>
			<point x="114" y="62"/>
			<point x="192" y="55"/>
			<point x="237" y="55" type="curve" smooth="yes"/>
			<point x="261" y="55"/>
			<point x="335" y="67"/>
			<point x="335" y="130" type="curve" smooth="yes"/>
			<point x="335" y="236"/>
			<point name=".hr01" x="55" y="185"/>
			<point x="55" y="340" type="curve" smooth="yes"/>
			<point x="55" y="407"/>
			<point x="105" y="470"/>
			<point x="215" y="470" type="curve" smooth="yes"/>
			<point x="307" y="470"/>
			<point x="397" y="414"/>
			<point x="397" y="336" type="curve"/>
			<point x="316" y="336" type="line"/>
			<point x="304" y="378"/>
			<point x="265" y="405"/>
			<point x="215" y="405" type="curve" smooth="yes"/>
			<point x="170" y="405"/>
			<point x="135" y="385"/>
			<point x="135" y="340" type="curve" smooth="yes"/>
			<point x="135" y="263"/>
			<point x="417" y="288"/>
			<point x="417" y="130" type="curve" smooth="yes"/>
			<point x="417" y="10"/>
			<point x="314" y="-10"/>
			<point x="237" y="-10" type="curve" smooth="yes"/>
			<point x="133" y="-10"/>
			<point name=".hr02" x="35" y="52"/>
		</contour>
		<contour>
			<point x="210" y="610" type="line"/>
			<point x="134" y="520" type="line"/>
			<point x="40" y="520" type="line"/>
			<point x="140" y="700" type="line"/>
			<point x="280" y="700" type="line"/>
			<point x="380" y="520" type="line"/>
			<point x="286" y="520" type="line"/>
		</contour>
	</outline>
</glyph>
<glyph name="Scaron" format="2">
	<unicode hex="0160"/>
	<advance width="582"/>
	<outline>
		<contour>
			<point x="31" y="223" type="curve"/>
			<point x="221" y="223" type="line"/>
			<point x="221" y="183"/>
			<point x="244" y="150"/>
			<point x="291" y="150" type="curve" smooth="yes"/>
			<point x="341" y="150"/>
			<point x="362" y="170"/>
			<point x="362" y="194" type="curve" smooth="yes"/>
			<point x="362" y="222"/>
			<point x="348" y="243"/>
			<point x="326" y="255" type="curve" smooth="yes"/>
			<point x="139" y="358" type="line" smooth="yes"/>
			<point x="85" y="388"/>
			<point name=".hr01" x="49" y="430"/>
			<point x="49" y="492" type="curve" smooth="yes"/>
			<point x="49" y="612"/>
			<point x="140" y="690"/>
			<point x="299" y="690" type="curve" smooth="yes"/>
			<point x="443" y="690"/>
			<point x="550" y="590"/>
			<point x="550" y="481" type="curve"/>
			<point x="360" y="481" type="line"/>
			<point x="360" y="506"/>
			<point x="342" y="530"/>
			<point x="290" y="530" type="curve" smooth="yes"/>
			<point x="254" y="530"/>
			<point x="239" y="522"/>
			<point x="239" y="493" type="curve" smooth="yes"/>
			<point x="239" y="479"/>
			<point x="246" y="470"/>
			<point x="274" y="455" type="curve" smooth="yes"/>
			<point x="449" y="360" type="line" smooth="yes"/>
			<point x="516" y="324"/>
			<point x="552" y="274"/>
			<point x="552" y="191" type="curve" smooth="yes"/>
			<point x="552" y="69"/>
			<point x="459" y="-10"/>
			<point x="284" y="-10" type="curve" smooth="yes"/>
			<point x="136" y="-10"/>
			<point name=".hr02" x="31" y="91"/>
		</contour>
		<contour>
			<point x="330" y="750" type="line"/>
			<point x="250" y="750" type="line"/>
			<point x="150" y="910" type="line"/>
			<point x="214" y="910" type="line"/>
			<point x="290" y="825" type="line"/>
			<point x="366" y="910" type="line"/>
			<point x="430" y="910" type="line"/>
		</contour>
	</outline>
</glyph>
<glyph name="uni0162" format="2">
	<unicode hex="0162"/>
	<advance width="480"/>
	<outline>
		<contour>
			<point x="330" y="520" type="line"/>
			<point x="330" y="0" type="line"/>
			<point x="150" y="0" type="line"/>
			<point x="150" y="520" type="line"/>
			<point x="10" y="520" type="line"/>
			<point x="10" y="680" type="line"/>
			<point x="470" y="680" type="line"/>
			<point x="470" y="520" type="line"/>
		</contour>
		<contour>
			<point x="222" y="-140" type="line"/>
			<point name=".hr01" x="200" y="-140" type="line"/>
			<point x="200" y="-60" type="line"/>
			<point x="280" y="-60" type="line"/>
			<point x="280" y="-140" type="line"/>
			<point x="234" y="-270" type="line"/>
			<point x="200" y="-270" type="line"/>
		</contour>
	</outline>
</glyph>
<glyph name="Tcaron" format="2">
	<unicode hex="0164"/>
	<advance width="480"/>
	<outline>
		<contour>
			<point x="330" y="520" type="line"/>
			<point x="330" y="0" type="line"/>
			<point x="150" y="0" type="line"/>
			<point x="150" y="520" type="line"/>
			<point x="10" y="520" type="line"/>
			<point x="10" y="680" type="line"/>
			<point x="470" y="680" type="line"/>
			<point x="470" y="520" type="line"/>
		</contour>
		<contour>
			<point x="280" y="740" type="line"/>
			<point x="200" y="740" type="line"/>
			<point x="100" y="900" type="line"/>
			<point x="164" y="900" type="line"/>
			<point x="240" y="815" type="line"/>
			<point x="316" y="900" type="line"/>
			<point x="380" y="900" type="line"/>
		</contour>
	</outline>
</glyph>
<glyph name="Utilde" format="2">
	<unicode hex="0168"/>
	<advance width="640"/>
	<outline>
		<contour>
			<point x="50" y="270" type="curve" smooth="yes"/>
			<point x="50" y="680" type="line"/>
			<point x="230" y="680" type="line"/>
			<point x="230" y="310" type="line" smooth="yes"/>
			<point x="230" y="211"/>
			<point x="250" y="160"/>
			<point x="320" y="160" type="curve" smooth="yes"/>
			<point x="390" y="160"/>
			<point x="410" y="211"/>
			<point x="410" y="310" type="curve" smooth="yes"/>
			<point x="410" y="680" type="line"/>
			<point x="590" y="680" type="line"/>
			<point x="590" y="270" type="line" smooth="yes"/>
			<point x="590" y="86"/>
			<point x="490" y="-10"/>
			<point x="320" y="-10" type="curve" smooth="yes"/>
			<point x="150" y="-10"/>
			<point x="50" y="86"/>
		</contour>
		<contour>
			<point x="217" y="760" type="curve"/>
			<point x="167" y="760" type="line"/>
			<point x="181" y="847"/>
			<point x="217" y="880"/>
			<point name=".hr01" x="257" y="880" type="curve" smooth="yes"/>
			<point x="282" y="880"/>
			<point x="304" y="870"/>
			<point x="326" y="859" type="curve"/>
			<point x="342" y="850"/>
			<point x="363" y="840"/>
			<point name=".hr02" x="383" y="840" type="curve" smooth="yes"/>
			<point x="403" y="840"/>
			<point x="418" y="852"/>
			<point x="423" y="880" type="curve"/>
			<point name=".hr03" x="473" y="880" type="line"/>
			<point x="459" y="793"/>
			<point x="423" y="760"/>
			<point name=".hr04" x="383" y="760" type="curve" smooth="yes"/>
			<point x="358" y="760"/>
			<point x="337" y="769"/>
			<point x="316" y="780" type="curve" smooth="yes"/>
			<point x="299" y="789"/>
			<point x="277" y="800"/>
			<point name=".hr05" x="257" y="800" type="curve" smooth="yes"/>
			<point x="237" y="800"/>
			<point x="222" y="788"/>
		</contour>
	</outline>
</glyph>
<glyph name="Umacron" format="2">
	<unicode hex="016A"/>
	<advance width="560"/>
	<outline>
		<contour>
			<point x="415" y="750" type="line"/>
			<point x="145" y="750" type="line"/>
			<point x="145" y="820" type="line"/>
			<point x="415" y="820" type="line"/>
		</contour>
		<contour>
			<point name=".hr01" x="10" y="270" type="curve" smooth="yes"/>
			<point x="10" y="680" type="line"/>
			<point x="190" y="680" type="line"/>
			<point x="190" y="310" type="line" smooth="yes"/>
			<point x="190" y="211"/>
			<point x="210" y="160"/>
			<point x="280" y="160" type="curve" smooth="yes"/>
			<point x="350" y="160"/>
			<point x="370" y="211"/>
			<point x="370" y="310" type="curve" smooth="yes"/>
			<point x="370" y="680" type="line"/>
			<point x="550" y="680" type="line"/>
			<point x="550" y="270" type="line" smooth="yes"/>
			<point x="550" y="86"/>
			<point x="450" y="-10"/>
			<point x="280" y="-10" type="curve" smooth="yes"/>
			<point x="110" y="-10"/>
			<point x="10" y="86"/>
		</contour>
	</outline>
</glyph>
<glyph name="Ubreve" format="2">
	<unicode hex="016C"/>
	<advance width="560"/>
	<outline>
		<contour>
			<point x="125" y="890" type="curve"/>
			<point x="205" y="890" type="line"/>
			<point x="205" y="830"/>
			<point x="245" y="810"/>
			<point x="280" y="810" type="curve" smooth="yes"/>
			<point x="315" y="810"/>
			<point x="355" y="830"/>
			<point x="355" y="890" type="curve"/>
			<point x="435" y="890" type="line"/>
			<point x="435" y="790"/>
			<point x="360" y="750"/>
			<point x="280" y="750" type="curve" smooth="yes"/>
			<point x="200" y="750"/>
			<point x="125" y="790"/>
		</contour>
		<contour>
			<point x="10" y="270" type="curve" smooth="yes"/>
			<point name=".hr01" x="10" y="680" type="line"/>
			<point x="190" y="680" type="line"/>
			<point x="190" y="310" type="line" smooth="yes"/>
			<point x="190" y="211"/>
			<point x="210" y="160"/>
			<point x="280" y="160" type="curve" smooth="yes"/>
			<point x="350" y="160"/>
			<point x="370" y="211"/>
			<point x="370" y="310" type="curve" smooth="yes"/>
			<point x="370" y="680" type="line"/>
			<point x="550" y="680" type="line"/>
			<point x="550" y="270" type="line" smooth="yes"/>
			<point x="550" y="86"/>
			<point x="450" y="-10"/>
			<point x="280" y="-10" type="curve" smooth="yes"/>
			<point x="110" y="-10"/>
			<point x="10" y="86"/>
		</contour>
	</outline>
</glyph>
<glyph name="ubreve" format="2">
	<unicode hex="016D"/>
	<advance width="478"/>
	<outline>
		<contour>
			<point x="354" y="154" type="curve"/>
			<point x="354" y="460" type="line"/>
			<point x="433" y="460" type="line"/>
			<point x="433" y="0" type="line"/>
			<point x="374" y="0" type="line"/>
			<point x="357" y="83" type="line"/>
			<point x="323" y="36"/>
			<point x="275" y="-10"/>
			<point x="200" y="-10" type="curve" smooth="yes"/>
			<point x="51" y="-10"/>
			<point x="45" y="98"/>
			<point x="45" y="165" type="curve" smooth="yes"/>
			<point x="45" y="460" type="line"/>
			<point x="125" y="460" type="line"/>
			<point x="125" y="165" type="line" smooth="yes"/>
			<point x="125" y="121"/>
			<point x="134" y="55"/>
			<point x="222" y="55" type="curve" smooth="yes"/>
			<point x="266" y="55"/>
			<point x="330" y="90"/>
		</contour>
		<contour>
			<point x="84" y="660" type="curve"/>
			<point name=".hr01" x="164" y="660" type="line"/>
			<point x="164" y="600"/>
			<point x="204" y="580"/>
			<point x="239" y="580" type="curve" smooth="yes"/>
			<point x="274" y="580"/>
			<point x="314" y="600"/>
			<point x="314" y="660" type="curve"/>
			<point x="394" y="660" type="line"/>
			<point x="394" y="560"/>
			<point x="319" y="520"/>
			<point x="239" y="520" type="curve" smooth="yes"/>
			<point x="159" y="520"/>
			<point x="84" y="560"/>
		</contour>
	</outline>
</glyph>
<glyph name="Uring" format="2">
	<unicode hex="016E"/>
	<advance width="560"/>
	<outline>
		<contour>
			<point x="240" y="819" type="curve" smooth="yes"/>
			<point x="240" y="802"/>
			<point x="254" y="788"/>
			<point x="271" y="788" type="curve" smooth="yes"/>
			<point x="288" y="788"/>
			<point x="302" y="802"/>
			<point x="302" y="819" type="curve" smooth="yes"/>
			<point x="302" y="836"/>
			<point x="288" y="850"/>
			<point x="271" y="850" type="curve" smooth="yes"/>
			<point x="254" y="850"/>
			<point x="240" y="836"/>
		</contour>
		<contour>
			<point x="10" y="270" type="curve" smooth="yes"/>
			<point x="10" y="680" type="line"/>
			<point x="190" y="680" type="line"/>
			<point x="190" y="310" type="line" smooth="yes"/>
			<point x="190" y="211"/>
			<point x="210" y="160"/>
			<point x="280" y="160" type="curve" smooth="yes"/>
			<point x="350" y="160"/>
			<point x="370" y="211"/>
			<point x="370" y="310" type="curve" smooth="yes"/>
			<point x="370" y="680" type="line"/>
			<point x="550" y="680" type="line"/>
			<point x="550" y="270" type="line" smooth="yes"/>
			<point x="550" y="86"/>
			<point x="450" y="-10"/>
			<point x="280" y="-10" type="curve" smooth="yes"/>
			<point x="110" y="-10"/>
			<point x="10" y="86"/>
		</contour>
		<contour>
			<point x="193" y="819" type="curve" smooth="yes"/>
			<point x="193" y="862"/>
			<point x="228" y="897"/>
			<point x="271" y="897" type="curve" smooth="yes"/>
			<point x="314" y="897"/>
			<point x="349" y="862"/>
			<point x="349" y="819" type="curve" smooth="yes"/>
			<point x="349" y="776"/>
			<point x="314" y="741"/>
			<point x="271" y="741" type="curve" smooth="yes"/>
			<point x="228" y="741"/>
			<point x="193" y="776"/>
		</contour>
	</outline>
</glyph>
<glyph name="Uhungarumlaut" format="2">
	<unicode hex="0170"/>
	<advance width="640"/>
	<outline>
		<contour>
			<point x="50" y="270" type="curve" smooth="yes"/>
			<point x="50" y="680" type="line"/>
			<point x="230" y="680" type="line"/>
			<point x="230" y="310" type="line" smooth="yes"/>
			<point x="230" y="211"/>
			<point x="250" y="160"/>
			<point x="320" y="160" type="curve" smooth="yes"/>
			<point x="390" y="160"/>
			<point x="410" y="211"/>
			<point x="410" y="310" type="curve" smooth="yes"/>
			<point x="410" y="680" type="line"/>
			<point x="590" y="680" type="line"/>
			<point x="590" y="270" type="line" smooth="yes"/>
			<point x="590" y="86"/>
			<point x="490" y="-10"/>
			<point x="320" y="-10" type="curve" smooth="yes"/>
			<point x="150" y="-10"/>
			<point x="50" y="86"/>
		</contour>
		<contour>
			<point x="362" y="730" type="line"/>
			<point x="298" y="730" type="line"/>
			<point x="358" y="910" type="line"/>
			<point x="438" y="910" type="line"/>
		</contour>
		<contour>
			<point x="267" y="730" type="line"/>
			<point x="203" y="730" type="line"/>
			<point x="248" y="910" type="line"/>
			<point x="328" y="910" type="line"/>
		</contour>
	</outline>
</glyph>
<glyph name="uogonek" format="2">
	<unicode hex="0173"/>
	<advance width="478"/>
	<outline>
		<contour>
			<point x="265" y="-124" type="curve" smooth="yes"/>
			<point x="265" y="-70"/>
			<point x="302" y="-25"/>
			<point x="336" y="0" type="curve"/>
			<point x="374" y="0" type="line"/>
			<point x="354" y="90" type="line"/>
			<point x="315" y="43"/>
			<point x="233" y="-10"/>
			<point x="167" y="-10" type="curve" smooth="yes"/>
			<point x="50" y="-10"/>
			<point x="45" y="78"/>
			<point x="45" y="160" type="curve" smooth="yes"/>
			<point x="45" y="460" type="line"/>
			<point x="125" y="460" type="line"/>
			<point x="125" y="190" type="line" smooth="yes"/>
			<point x="125" y="140"/>
			<point x="119" y="55"/>
			<point x="193" y="55" type="curve" smooth="yes"/>
			<point x="257" y="55"/>
			<point x="353" y="116"/>
			<point x="353" y="230" type="curve" smooth="yes"/>
			<point x="353" y="460" type="line"/>
			<point x="434" y="460" type="line"/>
			<point x="434" y="0" type="line"/>
			<point x="394" y="0" type="line"/>
			<point x="353" y="-31"/>
			<point x="326" y="-69"/>
			<point x="326" y="-108" type="curve" smooth="yes"/>
			<point x="326" y="-135"/>
			<point x="346" y="-154"/>
			<point x="372" y="-154" type="curve" smooth="yes"/>
			<point x="386" y="-154"/>
			<point x="401" y="-149"/>
			<point x="412" y="-141" type="curve"/>
			<point x="434" y="-182" type="line"/>
			<point x="421" y="-191" type="line"/>
			<point x="402" y="-202"/>
			<point x="375" y="-209"/>
			<point x="355" y="-209" type="curve" smooth="yes"/>
			<point x="305" y="-209"/>
			<point x="265" y="-180"/>
		</contour>
	</outline>
</glyph>
<glyph name="Ydieresis" format="2">
	<unicode hex="0178"/>
	<advance width="594"/>
	<outline>
		<contour>
			<point x="252" y="310" type="line"/>
			<point x="40" y="700" type="line"/>
			<point x="147" y="700" type="line"/>
			<point x="297" y="388" type="line"/>
			<point x="447" y="700" type="line"/>
			<point x="554" y="700" type="line"/>
			<point x="342" y="310" type="line"/>
			<point x="342" y="0" type="line"/>
			<point x="252" y="0" type="line"/>
		</contour>
		<contour>
			<point name=".hr01" x="258" y="760" type="line"/>
			<point x="178" y="760" type="line"/>
			<point x="178" y="840" type="line"/>
			<point x="258" y="840" type="line"/>
		</contour>
		<contour>
			<point x="415" y="760" type="line"/>
			<point x="335" y="760" type="line"/>
			<point x="335" y="840" type="line"/>
			<point x="415" y="840" type="line"/>
		</contour>
	</outline>
</glyph>
<glyph name="uni01CA" format="2">
	<unicode hex="01CA"/>
	<advance width="886"/>
	<outline>
		<contour>
			<point x="140" y="320" type="curve" smooth="yes"/>
			<point x="140" y="0" type="line"/>
			<point x="-40" y="0" type="line"/>
			<point x="-40" y="680" type="line"/>
			<point x="160" y="680" type="line"/>
			<point x="397" y="292" type="line"/>
			<point x="394" y="318"/>
			<point x="394" y="342"/>
			<point x="394" y="360" type="curve" smooth="yes"/>
			<point x="394" y="680" type="line"/>
			<point x="574" y="680" type="line"/>
			<point x="574" y="0" type="line"/>
			<point x="374" y="0" type="line"/>
			<point x="137" y="388" type="line"/>
			<point x="140" y="362"/>
			<point x="140" y="338"/>
		</contour>
		<contour>
			<point x="724" y="0" type="curve" smooth="yes"/>
			<point x="650" y="0" type="line"/>
			<point x="650" y="160" type="line"/>
			<point x="676" y="160" type="line" smooth="yes"/>
			<point x="716" y="160"/>
			<point x="748" y="176"/>
			<point x="748" y="240" type="curve" smooth="yes"/>
			<point x="748" y="680" type="line"/>
			<point x="928" y="680" type="line"/>
			<point x="928" y="244" type="line" smooth="yes"/>
			<point x="928" y="110"/>
			<point x="896" y="0"/>
		</contour>
	</outline>
</glyph>
<glyph name="uni01CB" format="2">
	<unicode hex="01CB"/>
	<advance width="830"/>
	<outline>
		<contour>
			<point x="532" y="-100" type="curve"/>
			<point x="597" y="-100" type="line"/>
			<point x="600" y="-132"/>
			<point x="621" y="-140"/>
			<point x="636" y="-140" type="curve" smooth="yes"/>
			<point x="660" y="-140"/>
			<point x="680" y="-136"/>
			<point x="680" y="-80" type="curve" smooth="yes"/>
			<point x="680" y="460" type="line"/>
			<point x="760" y="460" type="line"/>
			<point x="760" y="-60" type="line" smooth="yes"/>
			<point x="760" y="-181"/>
			<point x="704" y="-200"/>
			<point x="640" y="-200" type="curve" smooth="yes"/>
			<point x="584" y="-200"/>
			<point x="536" y="-162"/>
		</contour>
		<contour>
			<point x="140" y="320" type="curve" smooth="yes"/>
			<point x="140" y="0" type="line"/>
			<point x="-40" y="0" type="line"/>
			<point x="-40" y="680" type="line"/>
			<point x="160" y="680" type="line"/>
			<point x="397" y="292" type="line"/>
			<point x="394" y="318"/>
			<point name=".hr01" x="394" y="342"/>
			<point x="394" y="360" type="curve" smooth="yes"/>
			<point x="394" y="680" type="line"/>
			<point x="574" y="680" type="line"/>
			<point x="574" y="0" type="line"/>
			<point x="374" y="0" type="line"/>
			<point x="137" y="388" type="line"/>
			<point x="140" y="362"/>
			<point x="140" y="338"/>
		</contour>
		<contour>
			<point x="760" y="640" type="line"/>
			<point x="760" y="560" type="line"/>
			<point name=".hr02" x="680" y="560" type="line"/>
			<point x="680" y="640" type="line"/>
		</contour>
	</outline>
</glyph>
<glyph name="uni01CC" format="2">
	<unicode hex="01CC"/>
	<advance width="708"/>
	<outline>
		<contour>
			<point x="638" y="560" type="line"/>
			<point x="558" y="560" type="line"/>
			<point x="558" y="640" type="line"/>
			<point x="638" y="640" type="line"/>
		</contour>
		<contour>
			<point x="410" y="-100" type="curve"/>
			<point x="475" y="-100" type="line"/>
			<point x="478" y="-132"/>
			<point x="499" y="-140"/>
			<point x="514" y="-140" type="curve" smooth="yes"/>
			<point x="538" y="-140"/>
			<point x="558" y="-136"/>
			<point x="558" y="-80" type="curve" smooth="yes"/>
			<point x="558" y="460" type="line"/>
			<point x="638" y="460" type="line"/>
			<point x="638" y="-60" type="line" smooth="yes"/>
			<point x="638" y="-181"/>
			<point x="582" y="-200"/>
			<point x="518" y="-200" type="curve" smooth="yes"/>
			<point x="462" y="-200"/>
			<point x="414" y="-162"/>
		</contour>
		<contour>
			<point x="225" y="0" type="line"/>
			<point x="45" y="0" type="line"/>
			<point x="45" y="460" type="line"/>
			<point x="205" y="460" type="line"/>
			<point x="225" y="360" type="line"/>
		</contour>
	</outline>
</glyph>
<glyph name="uni01CD" format="2">
	<unicode hex="01CD"/>
	<advance width="480"/>
	<outline>
		<contour>
			<point x="280" y="750" type="line"/>
			<point x="200" y="750" type="line"/>
			<point x="100" y="910" type="line"/>
			<point x="164" y="910" type="line"/>
			<point x="240" y="825" type="line"/>
			<point x="316" y="910" type="line"/>
			<point x="380" y="910" type="line"/>
		</contour>
		<contour>
			<point x="362" y="270" type="line"/>
			<point x="240" y="650" type="line"/>
			<point x="118" y="270" type="line"/>
		</contour>
		<contour>
			<point x="448" y="0" type="line"/>
			<point x="368" y="250" type="line"/>
			<point x="112" y="250" type="line"/>
			<point x="32" y="0" type="line"/>
			<point name=".hr01" x="10" y="0" type="line"/>
			<point x="229" y="680" type="line"/>
			<point x="251" y="680" type="line"/>
			<point x="470" y="0" type="line"/>
		</contour>
	</outline>
</glyph>
<glyph name="uni01CF" format="2">
	<unicode hex="01CF"/>
	<advance width="280"/>
	<outline>
		<contour>
			<point x="230" y="680" type="line"/>
			<point x="230" y="0" type="line"/>
			<point x="50" y="0" type="line"/>
			<point x="50" y="680" type="line"/>
		</contour>
		<contour>
			<point x="180" y="740" type="line"/>
			<point x="100" y="740" type="line"/>
			<point x="0" y="900" type="line"/>
			<point x="64" y="900" type="line"/>
			<point x="140" y="815" type="line"/>
			<point x="216" y="900" type="line"/>
			<point x="280" y="900" type="line"/>
		</contour>
	</outline>
</glyph>
<glyph name="uni01D1" format="2">
	<unicode hex="01D1"/>
	<advance width="696"/>
	<outline>
		<contour>
			<point x="348" y="530" type="curve" smooth="yes"/>
			<point x="264" y="530"/>
			<point x="210" y="455"/>
			<point x="210" y="340" type="curve" smooth="yes"/>
			<point x="210" y="225"/>
			<point x="264" y="150"/>
			<point x="348" y="150" type="curve" smooth="yes"/>
			<point x="432" y="150"/>
			<point x="486" y="225"/>
			<point x="486" y="340" type="curve" smooth="yes"/>
			<point x="486" y="455"/>
			<point x="432" y="530"/>
		</contour>
		<contour>
			<point x="348" y="-10" type="curve" smooth="yes"/>
			<point x="143" y="-10"/>
			<point x="30" y="114"/>
			<point x="30" y="340" type="curve" smooth="yes"/>
			<point x="30" y="566"/>
			<point x="143" y="690"/>
			<point x="348" y="690" type="curve" smooth="yes"/>
			<point x="553" y="690"/>
			<point x="666" y="566"/>
			<point x="666" y="340" type="curve" smooth="yes"/>
			<point x="666" y="114"/>
			<point x="553" y="-10"/>
		</contour>
		<contour>
			<point x="390" y="740" type="line"/>
			<point x="310" y="740" type="line"/>
			<point x="210" y="900" type="line"/>
			<point x="274" y="900" type="line"/>
			<point x="350" y="815" type="line"/>
			<point x="426" y="900" type="line"/>
			<point x="490" y="900" type="line"/>
		</contour>
	</outline>
</glyph>
<glyph name="uni01D3" format="2">
	<unicode hex="01D3"/>
	<advance width="560"/>
	<outline>
		<contour>
			<point x="10" y="270" type="curve" smooth="yes"/>
			<point x="10" y="680" type="line"/>
			<point x="190" y="680" type="line"/>
			<point x="190" y="310" type="line" smooth="yes"/>
			<point x="190" y="211"/>
			<point x="210" y="160"/>
			<point x="280" y="160" type="curve" smooth="yes"/>
			<point x="350" y="160"/>
			<point x="370" y="211"/>
			<point x="370" y="310" type="curve" smooth="yes"/>
			<point x="370" y="680" type="line"/>
			<point x="550" y="680" type="line"/>
			<point x="550" y="270" type="line" smooth="yes"/>
			<point x="550" y="86"/>
			<point x="450" y="-10"/>
			<point x="280" y="-10" type="curve" smooth="yes"/>
			<point x="110" y="-10"/>
			<point x="10" y="86"/>
		</contour>
		<contour>
			<point x="320" y="750" type="line"/>
			<point x="240" y="750" type="line"/>
			<point x="140" y="910" type="line"/>
			<point x="204" y="910" type="line"/>
			<point x="280" y="825" type="line"/>
			<point x="356" y="910" type="line"/>
			<point x="420" y="910" type="line"/>
		</contour>
	</outline>
</glyph>
<glyph name="uni01DE" format="2">
	<unicode hex="01DE"/>
	<advance width="650"/>
	<outline>
		<contour>
			<point x="370" y="295" type="line"/>
			<point x="325" y="441" type="line"/>
			<point x="280" y="295" type="line"/>
		</contour>
		<contour>
			<point x="460" y="0" type="line"/>
			<point x="425" y="115" type="line"/>
			<point x="225" y="115" type="line"/>
			<point x="190" y="0" type="line"/>
			<point x="10" y="0" type="line"/>
			<point x="218" y="680" type="line"/>
			<point x="430" y="680" type="line"/>
			<point x="640" y="0" type="line"/>
		</contour>
		<contour>
			<point x="285" y="860" type="line"/>
			<point x="365" y="860" type="line"/>
			<point x="365" y="920" type="line"/>
			<point x="545" y="920" type="line"/>
			<point x="545" y="740" type="line"/>
			<point x="365" y="740" type="line"/>
			<point x="365" y="790" type="line"/>
			<point x="285" y="790" type="line"/>
			<point x="285" y="740" type="line"/>
			<point x="105" y="740" type="line"/>
			<point x="105" y="920" type="line"/>
			<point x="285" y="920" type="line"/>
		</contour>
	</outline>
</glyph>
<glyph name="uni01E8" format="2">
	<unicode hex="01E8"/>
	<advance width="710"/>
	<outline>
		<contour>
			<point x="230" y="233" type="line"/>
			<point x="230" y="0" type="line"/>
			<point x="50" y="0" type="line"/>
			<point x="50" y="680" type="line"/>
			<point x="230" y="680" type="line"/>
			<point x="230" y="380" type="line"/>
			<point x="290" y="397" type="line"/>
			<point x="460" y="680" type="line"/>
			<point x="660" y="680" type="line"/>
			<point x="460" y="350" type="line"/>
			<point x="700" y="0" type="line"/>
			<point x="480" y="0" type="line"/>
			<point x="308" y="259" type="line"/>
		</contour>
		<contour>
			<point x="395" y="760" type="line"/>
			<point x="315" y="760" type="line"/>
			<point x="215" y="920" type="line"/>
			<point x="279" y="920" type="line"/>
			<point x="355" y="835" type="line"/>
			<point x="431" y="920" type="line"/>
			<point x="495" y="920" type="line"/>
		</contour>
	</outline>
</glyph>
<glyph name="uni01F2" format="2">
	<unicode hex="01F2"/>
	<advance width="1090"/>
	<outline>
		<contour>
			<point x="230" y="520" type="line"/>
			<point x="230" y="160" type="line"/>
			<point x="308" y="160" type="line" smooth="yes"/>
			<point x="375" y="160"/>
			<point x="430" y="233"/>
			<point x="430" y="340" type="curve" smooth="yes"/>
			<point x="430" y="483"/>
			<point x="377" y="520"/>
			<point x="308" y="520" type="curve" smooth="yes"/>
		</contour>
		<contour>
			<point x="50" y="680" type="line"/>
			<point x="308" y="680" type="line" smooth="yes"/>
			<point x="498" y="680"/>
			<point x="610" y="564"/>
			<point x="610" y="340" type="curve" smooth="yes"/>
			<point x="610" y="113"/>
			<point x="499" y="0"/>
			<point x="308" y="0" type="curve" smooth="yes"/>
			<point x="50" y="0" type="line"/>
		</contour>
		<contour>
			<point name=".hr01" x="1050" y="65" type="line"/>
			<point x="1050" y="0" type="line"/>
			<point x="680" y="0" type="line"/>
			<point x="680" y="65" type="line"/>
			<point x="950" y="395" type="line"/>
			<point x="680" y="395" type="line"/>
			<point x="680" y="460" type="line"/>
			<point x="1050" y="460" type="line"/>
			<point x="1050" y="395" type="line"/>
			<point x="790" y="65" type="line"/>
		</contour>
	</outline>
</glyph>
<glyph name="uni0202" format="2">
	<unicode hex="0202"/>
	<advance width="570"/>
	<outline>
		<contour>
			<point x="330" y="295" type="line"/>
			<point x="285" y="441" type="line"/>
			<point x="240" y="295" type="line"/>
		</contour>
		<contour>
			<point x="420" y="0" type="line"/>
			<point x="385" y="115" type="line"/>
			<point x="185" y="115" type="line"/>
			<point x="150" y="0" type="line"/>
			<point x="-30" y="0" type="line"/>
			<point x="178" y="680" type="line"/>
			<point x="390" y="680" type="line"/>
			<point x="600" y="0" type="line"/>
		</contour>
		<contour>
			<point x="205" y="720" type="curve"/>
			<point x="125" y="720" type="line"/>
			<point x="125" y="820"/>
			<point x="200" y="860"/>
			<point x="280" y="860" type="curve" smooth="yes"/>
			<point x="360" y="860"/>
			<point x="435" y="820"/>
			<point x="435" y="720" type="curve"/>
			<point x="355" y="720" type="line"/>
			<point x="355" y="780"/>
			<point x="315" y="800"/>
			<point x="280" y="800" type="curve" smooth="yes"/>
			<point x="245" y="800"/>
			<point x="205" y="780"/>
		</contour>
	</outline>
</glyph>
<glyph name="uni0204" format="2">
	<unicode hex="0204"/>
	<advance width="510"/>
	<outline>
		<contour>
			<point x="420" y="270" type="line"/>
			<point x="230" y="270" type="line"/>
			<point x="230" y="150" type="line"/>
			<point x="460" y="150" type="line"/>
			<point x="460" y="0" type="line"/>
			<point x="50" y="0" type="line"/>
			<point x="50" y="680" type="line"/>
			<point x="460" y="680" type="line"/>
			<point x="460" y="530" type="line"/>
			<point x="230" y="530" type="line"/>
			<point x="230" y="420" type="line"/>
			<point x="420" y="420" type="line"/>
		</contour>
		<contour>
			<point x="278" y="730" type="line"/>
			<point x="214" y="730" type="line"/>
			<point x="138" y="910" type="line"/>
			<point x="218" y="910" type="line"/>
		</contour>
		<contour>
			<point x="373" y="730" type="line"/>
			<point x="309" y="730" type="line"/>
			<point x="248" y="910" type="line"/>
			<point x="328" y="910" type="line"/>
		</contour>
	</outline>
</glyph>
<glyph name="uni0208" format="2">
	<unicode hex="0208"/>
	<advance width="280"/>
	<outline>
		<contour>
			<point x="230" y="0" type="line"/>
			<point x="50" y="0" type="line"/>
			<point x="50" y="680" type="line"/>
			<point x="230" y="680" type="line"/>
		</contour>
		<contour>
			<point x="194" y="730" type="line"/>
			<point x="133" y="910" type="line"/>
			<point x="213" y="910" type="line"/>
			<point x="258" y="730" type="line"/>
		</contour>
		<contour>
			<point x="99" y="730" type="line"/>
			<point x="23" y="910" type="line"/>
			<point x="103" y="910" type="line"/>
			<point x="163" y="730" type="line"/>
		</contour>
	</outline>
</glyph>
<glyph name="uni020A" format="2">
	<unicode hex="020A"/>
	<advance width="280"/>
	<outline>
		<contour>
			<point x="230" y="0" type="line"/>
			<point x="50" y="0" type="line"/>
			<point x="50" y="680" type="line"/>
			<point x="230" y="680" type="line"/>
		</contour>
		<contour>
			<point name=".hr01" x="65" y="740" type="curve"/>
			<point x="-15" y="740" type="line"/>
			<point x="-15" y="840"/>
			<point x="60" y="880"/>
			<point x="140" y="880" type="curve" smooth="yes"/>
			<point x="220" y="880"/>
			<point x="295" y="840"/>
			<point x="295" y="740" type="curve"/>
			<point x="215" y="740" type="line"/>
			<point x="215" y="800"/>
			<point x="175" y="820"/>
			<point x="140" y="820" type="curve" smooth="yes"/>
			<point x="105" y="820"/>
			<point x="65" y="800"/>
		</contour>
	</outline>
</glyph>
<glyph name="uni020C" format="2">
	<unicode hex="020C"/>
	<advance width="696"/>
	<outline>
		<contour>
			<point x="348" y="530" type="curve" smooth="yes"/>
			<point x="264" y="530"/>
			<point x="210" y="455"/>
			<point x="210" y="340" type="curve" smooth="yes"/>
			<point x="210" y="225"/>
			<point x="264" y="150"/>
			<point x="348" y="150" type="curve" smooth="yes"/>
			<point x="432" y="150"/>
			<point x="486" y="225"/>
			<point x="486" y="340" type="curve" smooth="yes"/>
			<point x="486" y="455"/>
			<point x="432" y="530"/>
		</contour>
		<contour>
			<point x="348" y="-10" type="curve" smooth="yes"/>
			<point x="143" y="-10"/>
			<point x="30" y="114"/>
			<point x="30" y="340" type="curve" smooth="yes"/>
			<point x="30" y="566"/>
			<point x="143" y="690"/>
			<point x="348" y="690" type="curve" smooth="yes"/>
			<point x="553" y="690"/>
			<point x="666" y="566"/>
			<point x="666" y="340" type="curve" smooth="yes"/>
			<point x="666" y="114"/>
			<point x="553" y="-10"/>
		</contour>
		<contour>
			<point x="371" y="730" type="line"/>
			<point x="307" y="730" type="line"/>
			<point x="231" y="910" type="line"/>
			<point x="311" y="910" type="line"/>
		</contour>
		<contour>
			<point x="466" y="730" type="line"/>
			<point x="402" y="730" type="line"/>
			<point x="341" y="910" type="line"/>
			<point x="421" y="910" type="line"/>
		</contour>
	</outline>
</glyph>
<glyph name="uni020E" format="2">
	<unicode hex="020E"/>
	<advance width="696"/>
	<outline>
		<contour>
			<point x="348" y="530" type="curve" smooth="yes"/>
			<point x="264" y="530"/>
			<point x="210" y="455"/>
			<point x="210" y="340" type="curve" smooth="yes"/>
			<point x="210" y="225"/>
			<point x="264" y="150"/>
			<point x="348" y="150" type="curve" smooth="yes"/>
			<point x="432" y="150"/>
			<point x="486" y="225"/>
			<point x="486" y="340" type="curve" smooth="yes"/>
			<point x="486" y="455"/>
			<point x="432" y="530"/>
		</contour>
		<contour>
			<point x="348" y="-10" type="curve" smooth="yes"/>
			<point x="143" y="-10"/>
			<point x="30" y="114"/>
			<point x="30" y="340" type="curve" smooth="yes"/>
			<point x="30" y="566"/>
			<point x="143" y="690"/>
			<point x="348" y="690" type="curve" smooth="yes"/>
			<point x="553" y="690"/>
			<point x="666" y="566"/>
			<point x="666" y="340" type="curve" smooth="yes"/>
			<point x="666" y="114"/>
			<point x="553" y="-10"/>
		</contour>
		<contour>
			<point x="275" y="740" type="curve"/>
			<point x="195" y="740" type="line"/>
			<point name=".hr01" x="195" y="840"/>
			<point x="270" y="880"/>
			<point x="350" y="880" type="curve" smooth="yes"/>
			<point x="430" y="880"/>
			<point x="505" y="840"/>
			<point x="505" y="740" type="curve"/>
			<point x="425" y="740" type="line"/>
			<point x="425" y="800"/>
			<point x="385" y="820"/>
			<point x="350" y="820" type="curve" smooth="yes"/>
			<point x="315" y="820"/>
			<point x="275" y="800"/>
		</contour>
	</outline>
</glyph>
<glyph name="uni0214" format="2">
	<unicode hex="0214"/>
	<advance width="640"/>
	<outline>
		<contour>
			<point x="50" y="270" type="curve" smooth="yes"/>
			<point x="50" y="680" type="line"/>
			<point x="230" y="680" type="line"/>
			<point x="230" y="310" type="line" smooth="yes"/>
			<point x="230" y="211"/>
			<point x="250" y="160"/>
			<point x="320" y="160" type="curve" smooth="yes"/>
			<point x="390" y="160"/>
			<point x="410" y="211"/>
			<point x="410" y="310" type="curve" smooth="yes"/>
			<point x="410" y="680" type="line"/>
			<point x="590" y="680" type="line"/>
			<point x="590" y="270" type="line" smooth="yes"/>
			<point x="590" y="86"/>
			<point x="490" y="-10"/>
			<point x="320" y="-10" type="curve" smooth="yes"/>
			<point x="150" y="-10"/>
			<point x="50" y="86"/>
		</contour>
		<contour>
			<point x="374" y="730" type="line"/>
			<point x="313" y="910" type="line"/>
			<point x="393" y="910" type="line"/>
			<point x="438" y="730" type="line"/>
		</contour>
		<contour>
			<point x="279" y="730" type="line"/>
			<point x="203" y="910" type="line"/>
			<point x="283" y="910" type="line"/>
			<point x="343" y="730" type="line"/>
		</contour>
	</outline>
</glyph>
<glyph name="uni0216" format="2">
	<unicode hex="0216"/>
	<advance width="560"/>
	<outline>
		<contour>
			<point x="200" y="720" type="curve"/>
			<point x="120" y="720" type="line"/>
			<point x="120" y="820"/>
			<point x="195" y="860"/>
			<point x="275" y="860" type="curve" smooth="yes"/>
			<point x="355" y="860"/>
			<point x="430" y="820"/>
			<point x="430" y="720" type="curve"/>
			<point x="350" y="720" type="line"/>
			<point x="350" y="780"/>
			<point x="310" y="800"/>
			<point x="275" y="800" type="curve" smooth="yes"/>
			<point x="240" y="800"/>
			<point x="200" y="780"/>
		</contour>
		<contour>
			<point x="10" y="270" type="curve" smooth="yes"/>
			<point name=".hr01" x="10" y="680" type="line"/>
			<point x="190" y="680" type="line"/>
			<point x="190" y="310" type="line" smooth="yes"/>
			<point x="190" y="211"/>
			<point x="210" y="160"/>
			<point x="280" y="160" type="curve" smooth="yes"/>
			<point x="350" y="160"/>
			<point x="370" y="211"/>
			<point name=".hr02" x="370" y="310" type="curve" smooth="yes"/>
			<point x="370" y="680" type="line"/>
			<point x="550" y="680" type="line"/>
			<point x="550" y="270" type="line" smooth="yes"/>
			<point x="550" y="86"/>
			<point x="450" y="-10"/>
			<point x="280" y="-10" type="curve" smooth="yes"/>
			<point x="110" y="-10"/>
			<point x="10" y="86"/>
		</contour>
	</outline>
</glyph>
<glyph name="uni0218" format="2">
	<unicode hex="0218"/>
	<advance width="582"/>
	<outline>
		<contour>
			<point x="264" y="-151" type="line"/>
			<point x="264" y="-71" type="line"/>
			<point x="344" y="-71" type="line"/>
			<point x="344" y="-151" type="line"/>
			<point x="298" y="-281" type="line"/>
			<point x="264" y="-281" type="line"/>
			<point x="286" y="-151" type="line"/>
		</contour>
		<contour>
			<point x="31" y="223" type="curve"/>
			<point x="221" y="223" type="line"/>
			<point x="221" y="183"/>
			<point x="244" y="150"/>
			<point x="291" y="150" type="curve" smooth="yes"/>
			<point x="341" y="150"/>
			<point x="362" y="170"/>
			<point x="362" y="194" type="curve" smooth="yes"/>
			<point x="362" y="222"/>
			<point x="348" y="243"/>
			<point x="326" y="255" type="curve" smooth="yes"/>
			<point x="139" y="358" type="line" smooth="yes"/>
			<point x="85" y="388"/>
			<point name=".hr01" x="49" y="430"/>
			<point x="49" y="492" type="curve" smooth="yes"/>
			<point x="49" y="612"/>
			<point x="140" y="690"/>
			<point x="299" y="690" type="curve" smooth="yes"/>
			<point x="443" y="690"/>
			<point x="550" y="590"/>
			<point x="550" y="481" type="curve"/>
			<point x="360" y="481" type="line"/>
			<point x="360" y="506"/>
			<point x="342" y="530"/>
			<point x="290" y="530" type="curve" smooth="yes"/>
			<point x="254" y="530"/>
			<point x="239" y="522"/>
			<point x="239" y="493" type="curve" smooth="yes"/>
			<point x="239" y="479"/>
			<point x="246" y="470"/>
			<point x="274" y="455" type="curve" smooth="yes"/>
			<point x="449" y="360" type="line" smooth="yes"/>
			<point x="516" y="324"/>
			<point x="552" y="274"/>
			<point x="552" y="191" type="curve" smooth="yes"/>
			<point x="552" y="69"/>
			<point x="459" y="-10"/>
			<point x="284" y="-10" type="curve" smooth="yes"/>
			<point x="136" y="-10"/>
			<point name=".hr02" x="31" y="91"/>
		</contour>
	</outline>
</glyph>
<glyph name="uni021F" format="2">
	<unicode hex="021F"/>
	<advance width="478"/>
	<outline>
		<contour>
			<point x="199" y="760" type="line"/>
			<point x="79" y="940" type="line"/>
			<point x="143" y="940" type="line"/>
			<point x="239" y="813" type="line"/>
			<point x="335" y="940" type="line"/>
			<point x="399" y="940" type="line"/>
			<point x="279" y="760" type="line"/>
		</contour>
		<contour>
			<point x="125" y="0" type="curve"/>
			<point x="45" y="0" type="line"/>
			<point x="45" y="700" type="line"/>
			<point x="125" y="700" type="line"/>
			<point x="125" y="380" type="line"/>
			<point x="163" y="422"/>
			<point x="230" y="470"/>
			<point x="295" y="470" type="curve" smooth="yes"/>
			<point x="413" y="470"/>
			<point x="433" y="384"/>
			<point x="433" y="304" type="curve" smooth="yes"/>
			<point x="433" y="0" type="line"/>
			<point x="353" y="0" type="line"/>
			<point x="353" y="271" type="line" smooth="yes"/>
			<point x="353" y="344"/>
			<point x="352" y="390"/>
			<point x="293" y="390" type="curve" smooth="yes"/>
			<point x="226" y="390"/>
			<point x="183" y="364"/>
			<point x="126" y="310" type="curve"/>
			<point x="126" y="207"/>
			<point x="125" y="103"/>
		</contour>
	</outline>
</glyph>
<glyph name="uni0226" format="2">
	<unicode hex="0226"/>
	<advance width="570"/>
	<outline>
		<contour>
			<point x="330" y="295" type="line"/>
			<point x="285" y="441" type="line"/>
			<point x="240" y="295" type="line"/>
		</contour>
		<contour>
			<point x="420" y="0" type="line"/>
			<point x="385" y="115" type="line"/>
			<point x="185" y="115" type="line"/>
			<point x="150" y="0" type="line"/>
			<point x="-30" y="0" type="line"/>
			<point x="178" y="680" type="line"/>
			<point x="390" y="680" type="line"/>
			<point x="600" y="0" type="line"/>
		</contour>
		<contour>
			<point x="415" y="890" type="line"/>
			<point x="415" y="750" type="line"/>
			<point x="235" y="750" type="line"/>
			<point x="235" y="890" type="line"/>
		</contour>
	</outline>
</glyph>
<glyph name="uni0227" format="2">
	<unicode hex="0227"/>
	<advance width="493"/>
	<outline>
		<contour>
			<point x="342" y="78" type="curve"/>
			<point x="342" y="272" type="line"/>
			<point x="215" y="246" type="line" smooth="yes"/>
			<point x="98" y="222"/>
			<point x="65" y="194"/>
			<point x="65" y="121" type="curve" smooth="yes"/>
			<point x="65" y="54"/>
			<point x="124" y="10"/>
			<point x="191" y="10" type="curve" smooth="yes"/>
			<point x="239" y="10"/>
			<point x="301" y="38"/>
		</contour>
		<contour>
			<point x="222" y="264" type="curve" smooth="yes"/>
			<point x="342" y="288" type="line"/>
			<point x="342" y="350" type="line" smooth="yes"/>
			<point x="342" y="416"/>
			<point x="300" y="450"/>
			<point x="217" y="450" type="curve" smooth="yes"/>
			<point x="147" y="450"/>
			<point x="96" y="402"/>
			<point x="90" y="330" type="curve"/>
			<point x="70" y="330" type="line"/>
			<point x="78" y="414"/>
			<point x="139" y="470"/>
			<point x="223" y="470" type="curve" smooth="yes"/>
			<point x="307" y="470"/>
			<point x="362" y="425"/>
			<point x="362" y="359" type="curve" smooth="yes"/>
			<point x="362" y="0" type="line"/>
			<point x="348" y="0" type="line"/>
			<point x="343" y="54" type="line"/>
			<point x="298" y="13"/>
			<point x="240" y="-10"/>
			<point x="182" y="-10" type="curve" smooth="yes"/>
			<point x="101" y="-10"/>
			<point x="45" y="44"/>
			<point x="45" y="123" type="curve" smooth="yes"/>
			<point x="45" y="205"/>
			<point x="84" y="237"/>
		</contour>
		<contour>
			<point x="260" y="640" type="line"/>
			<point x="260" y="560" type="line"/>
			<point x="240" y="560" type="line"/>
			<point x="240" y="640" type="line"/>
		</contour>
	</outline>
</glyph>
<glyph name="uni02BC" format="2">
	<unicode hex="02BC"/>
	<advance width="180"/>
	<outline>
		<contour>
			<point x="84" y="390" type="line"/>
			<point x="50" y="390" type="line"/>
			<point x="72" y="520" type="line"/>
			<point x="50" y="520" type="line"/>
			<point x="50" y="600" type="line"/>
			<point x="130" y="600" type="line"/>
			<point x="130" y="520" type="line"/>
		</contour>
	</outline>
</glyph>
<glyph name="circumflex" format="2">
	<unicode hex="02C6"/>
	<advance width="340"/>
	<outline>
		<contour>
			<point x="170" y="610" type="line"/>
			<point x="94" y="520" type="line"/>
			<point x="0" y="520" type="line"/>
			<point x="100" y="700" type="line"/>
			<point x="240" y="700" type="line"/>
			<point x="340" y="520" type="line"/>
			<point x="246" y="520" type="line"/>
		</contour>
	</outline>
</glyph>
<glyph name="dotaccent" format="2">
	<unicode hex="02D9"/>
	<advance width="280"/>
	<outline>
		<contour>
			<point x="230" y="520" type="line"/>
			<point x="50" y="520" type="line"/>
			<point x="50" y="660" type="line"/>
			<point x="230" y="660" type="line"/>
		</contour>
	</outline>
</glyph>
<glyph name="ogonek" format="2">
	<unicode hex="02DB"/>
	<advance width="291"/>
	<outline>
		<contour>
			<point x="40" y="-124" type="curve" smooth="yes"/>
			<point x="40" y="-70"/>
			<point x="77" y="-25"/>
			<point x="111" y="0" type="curve"/>
			<point x="231" y="0" type="line"/>
			<point x="190" y="-31"/>
			<point x="181" y="-55"/>
			<point x="181" y="-74" type="curve" smooth="yes"/>
			<point x="181" y="-91"/>
			<point x="194" y="-100"/>
			<point x="208" y="-100" type="curve" smooth="yes"/>
			<point x="216" y="-100"/>
			<point x="226" y="-94"/>
			<point x="235" y="-87" type="curve"/>
			<point x="251" y="-182" type="line"/>
			<point x="231" y="-196"/>
			<point x="188" y="-210"/>
			<point x="142" y="-210" type="curve" smooth="yes"/>
			<point x="79" y="-210"/>
			<point x="40" y="-180"/>
		</contour>
	</outline>
</glyph>
<glyph name="gravecomb" format="2">
	<unicode hex="0300"/>
	<outline>
		<contour>
			<point x="-334" y="520" type="line"/>
			<point x="-434" y="720" type="line"/>
			<point x="-220" y="720" type="line"/>
			<point x="-170" y="520" type="line"/>
		</contour>
	</outline>
	<anchor name="top" x="-250" y="520"/>
</glyph>
<glyph name="acutecomb" format="2">
	<unicode hex="0301"/>
	<outline>
		<contour>
			<point x="-126" y="520" type="line"/>
			<point x="-290" y="520" type="line"/>
			<point x="-240" y="720" type="line"/>
			<point x="-26" y="720" type="line"/>
		</contour>
	</outline>
	<anchor name="top" x="-212" y="520"/>
</glyph>
<glyph name="uni0307" format="2">
	<unicode hex="0307"/>
	<outline>
		<contour>
			<point x="-50" y="520" type="line"/>
			<point x="-230" y="520" type="line"/>
			<point x="-230" y="660" type="line"/>
			<point x="-50" y="660" type="line"/>
		</contour>
	</outline>
</glyph>
<glyph name="uni0308" format="2">
	<unicode hex="0308"/>
	<outline>
		<contour>
			<point x="-288" y="520" type="line"/>
			<point x="-458" y="520" type="line"/>
			<point x="-458" y="690" type="line"/>
			<point x="-288" y="690" type="line"/>
		</contour>
		<contour>
			<point x="-50" y="520" type="line"/>
			<point x="-220" y="520" type="line"/>
			<point x="-220" y="690" type="line"/>
			<point x="-50" y="690" type="line"/>
		</contour>
	</outline>
	<anchor name="top" x="-254" y="520"/>
</glyph>
<glyph name="uni030C" format="2">
	<unicode hex="030C"/>
	<outline>
		<contour>
			<point x="-180" y="520" type="line"/>
			<point x="-260" y="520" type="line"/>
			<point x="-360" y="680" type="line"/>
			<point x="-296" y="680" type="line"/>
			<point x="-220" y="595" type="line"/>
			<point x="-144" y="680" type="line"/>
			<point x="-80" y="680" type="line"/>
		</contour>
	</outline>
</glyph>
<glyph name="uni0400" format="2">
	<unicode hex="0400"/>
	<advance width="510"/>
	<outline>
		<contour>
			<point x="420" y="270" type="line"/>
			<point x="230" y="270" type="line"/>
			<point x="230" y="150" type="line"/>
			<point x="460" y="150" type="line"/>
			<point x="460" y="0" type="line"/>
			<point x="50" y="0" type="line"/>
			<point x="50" y="680" type="line"/>
			<point x="460" y="680" type="line"/>
			<point x="460" y="530" type="line"/>
			<point x="230" y="530" type="line"/>
			<point x="230" y="420" type="line"/>
			<point x="420" y="420" type="line"/>
		</contour>
		<contour>
			<point x="287" y="740" type="line"/>
			<point x="223" y="740" type="line"/>
			<point x="157" y="900" type="line"/>
			<point x="237" y="900" type="line"/>
		</contour>
	</outline>
</glyph>
<glyph name="uni0402" format="2">
	<unicode hex="0402"/>
	<advance width="1314"/>
	<outline>
		<contour>
			<point x="991" y="-90" type="curve"/>
			<point x="1070" y="-90" type="line"/>
			<point x="1086" y="-114"/>
			<point x="1101" y="-120"/>
			<point x="1124" y="-120" type="curve" smooth="yes"/>
			<point x="1149" y="-120"/>
			<point x="1164" y="-103"/>
			<point x="1164" y="-55" type="curve" smooth="yes"/>
			<point x="1164" y="460" type="line"/>
			<point x="1244" y="460" type="line"/>
			<point x="1244" y="-31" type="line" smooth="yes"/>
			<point x="1244" y="-139"/>
			<point x="1187" y="-200"/>
			<point x="1122" y="-200" type="curve" smooth="yes"/>
			<point x="1058" y="-200"/>
			<point x="1007" y="-149"/>
		</contour>
		<contour>
			<point x="330" y="520" type="line"/>
			<point x="330" y="0" type="line"/>
			<point x="150" y="0" type="line"/>
			<point x="150" y="520" type="line"/>
			<point x="10" y="520" type="line"/>
			<point x="10" y="680" type="line"/>
			<point x="470" y="680" type="line"/>
			<point x="470" y="520" type="line"/>
		</contour>
		<contour>
			<point x="874" y="470" type="curve" smooth="yes"/>
			<point x="1023" y="470"/>
			<point x="1029" y="362"/>
			<point x="1029" y="295" type="curve" smooth="yes"/>
			<point x="1029" y="0" type="line"/>
			<point x="849" y="0" type="line"/>
			<point x="849" y="255" type="line" smooth="yes"/>
			<point x="849" y="299"/>
			<point x="840" y="365"/>
			<point x="792" y="365" type="curve" smooth="yes"/>
			<point x="736" y="365"/>
			<point x="710" y="310"/>
			<point x="710" y="210" type="curve" smooth="yes"/>
			<point x="710" y="0" type="line"/>
			<point x="530" y="0" type="line"/>
			<point x="530" y="700" type="line"/>
			<point name=".hr01" x="710" y="700" type="line"/>
			<point x="710" y="368" type="line"/>
			<point x="745" y="418"/>
			<point x="794" y="470"/>
		</contour>
	</outline>
</glyph>
<glyph name="uni040C" format="2">
	<unicode hex="040C"/>
	<advance width="710"/>
	<outline>
		<contour>
			<point x="230" y="233" type="line"/>
			<point x="230" y="0" type="line"/>
			<point x="50" y="0" type="line"/>
			<point x="50" y="680" type="line"/>
			<point x="230" y="680" type="line"/>
			<point x="230" y="380" type="line"/>
			<point x="290" y="397" type="line"/>
			<point x="460" y="680" type="line"/>
			<point x="660" y="680" type="line"/>
			<point x="460" y="350" type="line"/>
			<point x="700" y="0" type="line"/>
			<point x="480" y="0" type="line"/>
			<point x="308" y="259" type="line"/>
		</contour>
		<contour>
			<point x="488" y="940" type="line"/>
			<point x="402" y="730" type="line"/>
			<point x="222" y="730" type="line"/>
			<point x="292" y="940" type="line"/>
		</contour>
	</outline>
</glyph>
<glyph name="uni0413" format="2">
	<unicode hex="0413"/>
	<advance width="490"/>
	<outline>
		<contour>
			<point x="460" y="530" type="line"/>
			<point x="230" y="530" type="line"/>
			<point x="230" y="0" type="line"/>
			<point x="50" y="0" type="line"/>
			<point x="50" y="680" type="line"/>
			<point x="460" y="680" type="line"/>
		</contour>
	</outline>
</glyph>
<glyph name="uni041B" format="2">
	<unicode hex="041B"/>
	<advance width="608"/>
	<outline>
		<contour>
			<point x="50" y="-10" type="curve"/>
			<point x="50" y="80" type="line"/>
			<point x="166" y="80"/>
			<point x="168" y="283"/>
			<point x="168" y="372" type="curve" smooth="yes"/>
			<point x="168" y="700" type="line"/>
			<point x="558" y="700" type="line"/>
			<point x="558" y="0" type="line"/>
			<point x="468" y="0" type="line"/>
			<point x="468" y="620" type="line"/>
			<point x="258" y="620" type="line"/>
			<point x="258" y="372" type="line" smooth="yes"/>
			<point x="258" y="70"/>
			<point x="153" y="-10"/>
		</contour>
	</outline>
</glyph>
<glyph name="uni042B" format="2">
	<unicode hex="042B"/>
	<advance width="838"/>
	<outline>
		<component base="uni042C"/>
		<contour>
			<point x="788" y="680" type="line"/>
			<point x="788" y="0" type="line"/>
			<point x="608" y="0" type="line"/>
			<point x="608" y="680" type="line"/>
		</contour>
	</outline>
</glyph>
<glyph name="uni042C" format="2">
	<unicode hex="042C"/>
	<advance width="600"/>
	<outline>
		<contour>
			<point x="190" y="0" type="line"/>
			<point x="190" y="160" type="line"/>
			<point x="305" y="160" type="line" smooth="yes"/>
			<point x="350" y="160"/>
			<point x="368" y="190"/>
			<point x="368" y="225" type="curve" smooth="yes"/>
			<point x="368" y="253"/>
			<point x="347" y="282"/>
			<point x="305" y="282" type="curve" smooth="yes"/>
			<point x="190" y="282" type="line"/>
			<point x="190" y="442" type="line"/>
			<point x="335" y="442" type="line" smooth="yes"/>
			<point x="496" y="442"/>
			<point x="550" y="341"/>
			<point x="550" y="225" type="curve" smooth="yes"/>
			<point x="550" y="112"/>
			<point x="483" y="0"/>
			<point x="335" y="0" type="curve" smooth="yes"/>
		</contour>
		<contour>
			<point x="50" y="0" type="line"/>
			<point x="50" y="680" type="line"/>
			<point x="230" y="680" type="line"/>
			<point x="230" y="0" type="line"/>
		</contour>
	</outline>
</glyph>
<glyph name="uni0440" format="2">
	<unicode hex="0440"/>
	<advance width="491"/>
	<outline>
		<contour>
			<point x="125" y="232" type="curve" smooth="yes"/>
			<point x="125" y="226" type="line" smooth="yes"/>
			<point x="125" y="123"/>
			<point x="176" y="55"/>
			<point x="245" y="55" type="curve" smooth="yes"/>
			<point x="338" y="55"/>
			<point name=".hr01" x="376" y="123"/>
			<point x="376" y="231" type="curve" smooth="yes"/>
			<point x="376" y="306"/>
			<point x="357" y="405"/>
			<point x="245" y="405" type="curve" smooth="yes"/>
			<point x="162" y="405"/>
			<point x="125" y="316"/>
		</contour>
		<contour>
			<point x="45" y="-200" type="line"/>
			<point x="45" y="460" type="line"/>
			<point x="55.6383" y="460"/>
			<point x="94.0906" y="460"/>
			<point x="105" y="460" type="curve"/>
			<point x="108.669" y="445.509"/>
			<point x="121.508" y="394.795"/>
			<point x="125" y="381" type="curve"/>
			<point x="157" y="436"/>
			<point x="195" y="470"/>
			<point name=".hr02" x="270" y="470" type="curve" smooth="yes"/>
			<point x="395" y="470"/>
			<point x="456" y="350"/>
			<point x="456" y="231" type="curve" smooth="yes"/>
			<point x="456" y="111"/>
			<point x="392" y="-10"/>
			<point x="266" y="-10" type="curve" smooth="yes"/>
			<point x="193" y="-10"/>
			<point x="156" y="21"/>
			<point x="125" y="74" type="curve"/>
			<point x="125" y="-200" type="line"/>
		</contour>
	</outline>
</glyph>
<glyph name="uni044B" format="2">
	<unicode hex="044B"/>
	<advance width="645"/>
	<outline>
		<contour>
			<point x="259" y="225" type="curve" smooth="yes"/>
			<point x="156" y="225" type="line"/>
			<point x="156" y="65" type="line"/>
			<point x="259" y="65" type="line" smooth="yes"/>
			<point x="329" y="65"/>
			<point x="353" y="95"/>
			<point x="353" y="140" type="curve" smooth="yes"/>
			<point x="353" y="191"/>
			<point x="329" y="225"/>
		</contour>
		<contour>
			<point x="259" y="0" type="curve" smooth="yes"/>
			<point x="75" y="0" type="line"/>
			<point x="75" y="460" type="line"/>
			<point x="155" y="460" type="line"/>
			<point x="155" y="290" type="line"/>
			<point x="259" y="290" type="line" smooth="yes"/>
			<point x="399" y="290"/>
			<point x="433" y="215"/>
			<point x="433" y="140" type="curve" smooth="yes"/>
			<point x="433" y="65"/>
			<point x="399" y="0"/>
		</contour>
		<contour>
			<point x="575" y="460" type="line"/>
			<point x="575" y="0" type="line"/>
			<point x="495" y="0" type="line"/>
			<point x="495" y="460" type="line"/>
		</contour>
	</outline>
</glyph>
<glyph name="uni04D0" format="2">
	<unicode hex="04D0"/>
	<advance width="570"/>
	<outline>
		<contour>
			<point x="330" y="295" type="line"/>
			<point x="285" y="441" type="line"/>
			<point x="240" y="295" type="line"/>
		</contour>
		<contour>
			<point x="420" y="0" type="line"/>
			<point x="385" y="115" type="line"/>
			<point x="185" y="115" type="line"/>
			<point x="150" y="0" type="line"/>
			<point x="-30" y="0" type="line"/>
			<point x="178" y="680" type="line"/>
			<point x="390" y="680" type="line"/>
			<point x="600" y="0" type="line"/>
		</contour>
		<contour>
			<point x="130" y="890" type="curve"/>
			<point x="210" y="890" type="line"/>
			<point x="210" y="830"/>
			<point x="250" y="810"/>
			<point x="285" y="810" type="curve" smooth="yes"/>
			<point x="320" y="810"/>
			<point x="360" y="830"/>
			<point x="360" y="890" type="curve"/>
			<point x="440" y="890" type="line"/>
			<point x="440" y="790"/>
			<point x="365" y="750"/>
			<point x="285" y="750" type="curve" smooth="yes"/>
			<point x="205" y="750"/>
			<point x="130" y="790"/>
		</contour>
	</outline>
</glyph>
<glyph name="uni04D2" format="2">
	<unicode hex="04D2"/>
	<advance width="570"/>
	<outline>
		<contour>
			<point x="330" y="295" type="line"/>
			<point x="285" y="441" type="line"/>
			<point x="240" y="295" type="line"/>
		</contour>
		<contour>
			<point x="420" y="0" type="line"/>
			<point x="385" y="115" type="line"/>
			<point x="185" y="115" type="line"/>
			<point x="150" y="0" type="line"/>
			<point x="-30" y="0" type="line"/>
			<point x="178" y="680" type="line"/>
			<point x="390" y="680" type="line"/>
			<point x="600" y="0" type="line"/>
		</contour>
		<contour>
			<point x="246" y="840" type="line"/>
			<point x="246" y="760" type="line"/>
			<point x="166" y="760" type="line"/>
			<point x="166" y="840" type="line"/>
		</contour>
		<contour>
			<point x="404" y="840" type="line"/>
			<point x="404" y="760" type="line"/>
			<point x="324" y="760" type="line"/>
			<point x="324" y="840" type="line"/>
		</contour>
	</outline>
</glyph>
<glyph name="uni04DF" format="2">
	<unicode hex="04DF"/>
	<advance width="451"/>
	<outline>
		<contour>
			<point x="179" y="530" type="line"/>
			<point x="99" y="530" type="line"/>
			<point x="99" y="610" type="line"/>
			<point x="179" y="610" type="line"/>
		</contour>
		<contour>
			<point x="336" y="530" type="line"/>
			<point x="256" y="530" type="line"/>
			<point x="256" y="610" type="line"/>
			<point x="336" y="610" type="line"/>
		</contour>
		<contour>
			<point name=".hr01" x="44" y="130" type="curve"/>
			<point x="114" y="130" type="line"/>
			<point x="114" y="73"/>
			<point x="175" y="55"/>
			<point x="228" y="55" type="curve" smooth="yes"/>
			<point x="273" y="55"/>
			<point x="334" y="70"/>
			<point x="334" y="133" type="curve" smooth="yes"/>
			<point x="334" y="182"/>
			<point x="302" y="213"/>
			<point x="212" y="213" type="curve"/>
			<point x="212" y="270" type="line"/>
			<point x="282" y="278"/>
			<point name=".hr02" x="304" y="298"/>
			<point x="304" y="344" type="curve" smooth="yes"/>
			<point x="304" y="397"/>
			<point x="252" y="405"/>
			<point x="215" y="405" type="curve" smooth="yes"/>
			<point x="175" y="405"/>
			<point x="114" y="397"/>
			<point x="114" y="320" type="curve"/>
			<point x="44" y="320" type="line"/>
			<point x="44" y="411"/>
			<point x="132" y="470"/>
			<point x="217" y="470" type="curve" smooth="yes"/>
			<point x="312" y="470"/>
			<point x="384" y="422"/>
			<point x="384" y="352" type="curve" smooth="yes"/>
			<point x="384" y="312"/>
			<point x="366" y="275"/>
			<point x="327" y="250" type="curve"/>
			<point x="399" y="239"/>
			<point name=".hr03" x="415" y="175"/>
			<point x="415" y="135" type="curve" smooth="yes"/>
			<point x="415" y="49"/>
			<point name=".hr04" x="336" y="-10"/>
			<point x="227" y="-10" type="curve" smooth="yes"/>
			<point x="139" y="-10"/>
			<point x="44" y="30"/>
		</contour>
	</outline>
</glyph>
<glyph name="uni04E5" format="2">
	<unicode hex="04E5"/>
	<advance width="528"/>
	<outline>
		<contour>
			<point x="225" y="560" type="line"/>
			<point x="145" y="560" type="line"/>
			<point x="145" y="640" type="line"/>
			<point x="225" y="640" type="line"/>
		</contour>
		<contour>
			<point x="383" y="560" type="line"/>
			<point x="303" y="560" type="line"/>
			<point x="303" y="640" type="line"/>
			<point x="383" y="640" type="line"/>
		</contour>
		<contour>
			<point name=".hr01" x="150" y="0" type="line"/>
			<point x="70" y="0" type="line"/>
			<point x="70" y="460" type="line"/>
			<point x="150" y="460" type="line"/>
			<point x="150" y="180" type="line"/>
			<point name=".hr02" x="145" y="115" type="line"/>
			<point x="378" y="460" type="line"/>
			<point x="458" y="460" type="line"/>
			<point x="458" y="0" type="line"/>
			<point x="378" y="0" type="line"/>
			<point x="378" y="280" type="line"/>
			<point name=".hr03" x="383" y="345" type="line"/>
		</contour>
	</outline>
</glyph>
<glyph name="bullet" format="2">
	<unicode hex="2022"/>
	<advance width="311"/>
	<outline>
		<contour>
			<point x="45" y="311" type="curve" smooth="yes"/>
			<point x="45" y="373"/>
			<point x="95" y="422"/>
			<point x="156" y="422" type="curve" smooth="yes"/>
			<point x="216" y="422"/>
			<point x="266" y="373"/>
			<point x="266" y="311" type="curve" smooth="yes"/>
			<point x="266" y="251"/>
			<point x="216" y="202"/>
			<point x="156" y="202" type="curve" smooth="yes"/>
			<point x="95" y="202"/>
			<point x="45" y="251"/>
		</contour>
	</outline>
</glyph>
<glyph name="guilsinglright" format="2">
	<unicode hex="203A"/>
	<advance width="296"/>
	<outline>
		<contour>
			<point x="119" y="31" type="line"/>
			<point x="55" y="31" type="line"/>
			<point x="168" y="230" type="line"/>
			<point x="55" y="428" type="line"/>
			<point x="119" y="428" type="line"/>
			<point x="257" y="230" type="line"/>
		</contour>
	</outline>
</glyph>
<glyph name="four.dnom" format="2">
	<advance width="355"/>
	<outline>
		<contour>
			<point x="246" y="179" type="line"/>
			<point x="240" y="179" type="line"/>
			<point x="93" y="-55" type="line"/>
			<point x="246" y="-55" type="line"/>
		</contour>
		<contour>
			<point x="246" y="-116" type="line"/>
			<point x="33" y="-116" type="line"/>
			<point x="33" y="-63" type="line"/>
			<point x="212" y="237" type="line"/>
			<point x="314" y="237" type="line"/>
			<point x="314" y="-55" type="line"/>
			<point x="354" y="-55" type="line"/>
			<point x="354" y="-116" type="line"/>
			<point x="314" y="-116" type="line"/>
			<point x="314" y="-230" type="line"/>
			<point x="246" y="-230" type="line"/>
		</contour>
	</outline>
</glyph>
<glyph name="four.inferior" format="2">
	<advance width="355"/>
	<outline>
		<contour>
			<point x="246" y="-51" type="line"/>
			<point x="240" y="-51" type="line"/>
			<point x="93" y="-285" type="line"/>
			<point x="246" y="-285" type="line"/>
		</contour>
		<contour>
			<point x="246" y="-346" type="line"/>
			<point x="33" y="-346" type="line"/>
			<point x="33" y="-293" type="line"/>
			<point x="212" y="7" type="line"/>
			<point x="314" y="7" type="line"/>
			<point x="314" y="-285" type="line"/>
			<point x="354" y="-285" type="line"/>
			<point x="354" y="-346" type="line"/>
			<point x="314" y="-346" type="line"/>
			<point x="314" y="-460" type="line"/>
			<point x="246" y="-460" type="line"/>
		</contour>
	</outline>
</glyph>
<glyph name="three.dnom" format="2">
	<advance width="375"/>
	<outline>
		<contour>
			<point x="27" y="-121" type="curve"/>
			<point x="92" y="-121" type="line"/>
			<point x="92" y="-168"/>
			<point x="160" y="-177"/>
			<point x="180" y="-177" type="curve" smooth="yes"/>
			<point x="229" y="-177"/>
			<point x="281" y="-157"/>
			<point x="281" y="-96" type="curve" smooth="yes"/>
			<point x="281" y="-25"/>
			<point x="230" y="-10"/>
			<point x="169" y="-10" type="curve" smooth="yes"/>
			<point x="136" y="-10" type="line"/>
			<point x="136" y="51" type="line"/>
			<point x="169" y="51" type="line" smooth="yes"/>
			<point x="226" y="51"/>
			<point name=".hr01" x="243" y="65"/>
			<point x="243" y="123" type="curve" smooth="yes"/>
			<point x="243" y="161"/>
			<point x="212" y="184"/>
			<point x="166" y="184" type="curve" smooth="yes"/>
			<point x="127" y="184"/>
			<point x="92" y="166"/>
			<point x="92" y="135" type="curve"/>
			<point x="27" y="135" type="line"/>
			<point x="27" y="212"/>
			<point x="96" y="244"/>
			<point x="165" y="244" type="curve" smooth="yes"/>
			<point x="255" y="244"/>
			<point x="311" y="204"/>
			<point x="311" y="125" type="curve" smooth="yes"/>
			<point x="311" y="84"/>
			<point x="286" y="46"/>
			<point x="241" y="26" type="curve"/>
			<point x="300" y="17"/>
			<point name=".hr02" x="349" y="-14"/>
			<point x="349" y="-97" type="curve" smooth="yes"/>
			<point x="349" y="-195"/>
			<point x="274" y="-237"/>
			<point x="180" y="-237" type="curve" smooth="yes"/>
			<point x="106" y="-237"/>
			<point x="27" y="-205"/>
		</contour>
	</outline>
</glyph>
<glyph name="three.numr" format="2">
	<advance width="375"/>
	<outline>
		<contour>
			<point x="27" y="339" type="curve"/>
			<point x="92" y="339" type="line"/>
			<point x="92" y="292"/>
			<point x="160" y="283"/>
			<point x="180" y="283" type="curve" smooth="yes"/>
			<point x="228" y="283"/>
			<point x="281" y="303"/>
			<point x="281" y="364" type="curve" smooth="yes"/>
			<point x="281" y="436"/>
			<point x="229" y="450"/>
			<point x="169" y="450" type="curve" smooth="yes"/>
			<point x="136" y="450" type="line"/>
			<point x="136" y="511" type="line"/>
			<point x="169" y="511" type="line" smooth="yes"/>
			<point x="226" y="511"/>
			<point name=".hr01" x="243" y="525"/>
			<point x="243" y="583" type="curve" smooth="yes"/>
			<point x="243" y="621"/>
			<point x="212" y="644"/>
			<point x="166" y="644" type="curve" smooth="yes"/>
			<point x="127" y="644"/>
			<point x="92" y="626"/>
			<point x="92" y="595" type="curve"/>
			<point x="27" y="595" type="line"/>
			<point x="27" y="672"/>
			<point x="96" y="704"/>
			<point x="165" y="704" type="curve" smooth="yes"/>
			<point x="255" y="704"/>
			<point x="311" y="664"/>
			<point x="311" y="585" type="curve" smooth="yes"/>
			<point x="311" y="544"/>
			<point x="286" y="506"/>
			<point x="241" y="486" type="curve"/>
			<point x="300" y="477"/>
			<point name=".hr02" x="349" y="446"/>
			<point x="349" y="363" type="curve" smooth="yes"/>
			<point x="349" y="265"/>
			<point x="274" y="223"/>
			<point x="180" y="223" type="curve" smooth="yes"/>
			<point x="106" y="223"/>
			<point x="27" y="255"/>
		</contour>
	</outline>
</glyph>
<glyph name="uni0439.loclBGR" format="2">
	<advance width="478"/>
	<outline>
		<contour>
			<point x="354" y="154" type="curve"/>
			<point x="354" y="460" type="line"/>
			<point x="433" y="460" type="line"/>
			<point x="433" y="0" type="line"/>
			<point x="374" y="0" type="line"/>
			<point x="357" y="83" type="line"/>
			<point x="323" y="36"/>
			<point x="275" y="-10"/>
			<point x="200" y="-10" type="curve" smooth="yes"/>
			<point x="51" y="-10"/>
			<point x="45" y="98"/>
			<point x="45" y="165" type="curve" smooth="yes"/>
			<point x="45" y="460" type="line"/>
			<point x="125" y="460" type="line"/>
			<point x="125" y="165" type="line" smooth="yes"/>
			<point x="125" y="121"/>
			<point x="134" y="55"/>
			<point x="222" y="55" type="curve" smooth="yes"/>
			<point x="266" y="55"/>
			<point x="330" y="90"/>
		</contour>
		<contour>
			<point x="90" y="640" type="curve"/>
			<point x="165" y="640" type="line"/>
			<point x="164" y="584"/>
			<point x="211" y="564"/>
			<point x="245" y="564" type="curve" smooth="yes"/>
			<point x="287" y="564"/>
			<point x="325" y="582"/>
			<point name=".hr01" x="325" y="640" type="curve"/>
			<point x="400" y="640" type="line"/>
			<point x="400" y="549"/>
			<point x="333" y="500"/>
			<point x="245" y="500" type="curve" smooth="yes"/>
			<point x="159" y="500"/>
			<point x="90" y="551"/>
		</contour>
	</outline>
</glyph>
<glyph name="uni043C.sc" format="2">
	<advance width="609"/>
	<outline>
		<contour>
			<point name=".hr02" x="113" y="374" type="line"/>
			<point x="113" y="0" type="line"/>
			<point x="33" y="0" type="line"/>
			<point x="33" y="460" type="line"/>
			<point x="167" y="460" type="line"/>
			<point x="306" y="65" type="line"/>
			<point x="445" y="460" type="line"/>
			<point x="577" y="460" type="line"/>
			<point x="577" y="0" type="line"/>
			<point x="497" y="0" type="line"/>
			<point name=".hr01" x="497" y="381" type="line"/>
			<point x="363" y="0" type="line"/>
			<point x="244" y="0" type="line"/>
		</contour>
	</outline>
</glyph>
<glyph name="uni043F.loclBGR" format="2">
	<advance width="588"/>
	<outline>
		<contour>
			<point x="383" y="470" type="curve" smooth="yes"/>
			<point x="532" y="470"/>
			<point x="538" y="362"/>
			<point x="538" y="295" type="curve" smooth="yes"/>
			<point x="538" y="0" type="line"/>
			<point x="358" y="0" type="line"/>
			<point x="358" y="255" type="line" smooth="yes"/>
			<point x="358" y="299"/>
			<point x="349" y="365"/>
			<point x="301" y="365" type="curve" smooth="yes"/>
			<point x="266" y="365"/>
			<point x="242" y="343"/>
			<point x="230" y="302" type="curve"/>
			<point x="230" y="0" type="line"/>
			<point x="50" y="0" type="line"/>
			<point x="50" y="460" type="line"/>
			<point x="210" y="460" type="line"/>
			<point x="226" y="378" type="line"/>
			<point x="261" y="425"/>
			<point x="308" y="470"/>
		</contour>
	</outline>
</glyph>
<glyph name="uni0442.loclBGR" format="2">
	<advance width="776"/>
	<outline>
		<contour>
			<point x="130" y="310" type="curve"/>
			<point x="130" y="0" type="line"/>
			<point x="50" y="0" type="line"/>
			<point x="50" y="460" type="line"/>
			<point x="110" y="460" type="line"/>
			<point x="126" y="379" type="line"/>
			<point x="160" y="425"/>
			<point x="206" y="470"/>
			<point x="278" y="470" type="curve" smooth="yes"/>
			<point x="372" y="470"/>
			<point x="407" y="424"/>
			<point x="420" y="374" type="curve"/>
			<point x="454" y="422"/>
			<point x="501" y="470"/>
			<point x="576" y="470" type="curve" smooth="yes"/>
			<point x="720" y="470"/>
			<point x="726" y="362"/>
			<point x="726" y="295" type="curve" smooth="yes"/>
			<point x="726" y="0" type="line"/>
			<point x="646" y="0" type="line"/>
			<point x="646" y="295" type="line" smooth="yes"/>
			<point x="646" y="339"/>
			<point x="637" y="405"/>
			<point x="554" y="405" type="curve" smooth="yes"/>
			<point x="512" y="405"/>
			<point x="452" y="372"/>
			<point x="428" y="309" type="curve"/>
			<point x="428" y="304"/>
			<point x="428" y="300"/>
			<point x="428" y="295" type="curve" smooth="yes"/>
			<point x="428" y="0" type="line"/>
			<point x="348" y="0" type="line"/>
			<point x="348" y="295" type="line" smooth="yes"/>
			<point x="348" y="339"/>
			<point x="339" y="405"/>
			<point x="256" y="405" type="curve" smooth="yes"/>
			<point x="214" y="405"/>
			<point x="154" y="372"/>
		</contour>
	</outline>
</glyph>
